<svg width="20" height="23" viewBox="0 0 20 23" fill="none" xmlns="http://www.w3.org/2000/svg">
<path d="M15.8971 21.4179C14.7108 22.5679 13.4155 22.3863 12.1687 21.8416C10.8492 21.2847 9.6387 21.2605 8.2466 21.8416C6.50344 22.5921 5.58344 22.3742 4.54239 21.4179C-1.36498 15.3289 -0.493401 6.05632 6.21291 5.71737C7.84713 5.80211 8.98502 6.61316 9.94134 6.68579C11.3698 6.39526 12.7377 5.56 14.2629 5.66895C16.0908 5.81421 17.4708 6.54053 18.3787 7.8479C14.6019 10.1116 15.4977 15.0868 18.9598 16.479C18.2698 18.2947 17.374 20.0984 15.885 21.43L15.8971 21.4179ZM9.82028 5.64474C9.6387 2.94526 11.8298 0.717895 14.3477 0.5C14.6987 3.62316 11.515 5.94737 9.82028 5.64474Z" fill="black"/>
</svg>
