<svg width="20" height="20" viewBox="0 0 20 20" fill="none" xmlns="http://www.w3.org/2000/svg">
<path d="M2.30438 9.37508H3.75V15.6251H2.5C2.15438 15.6251 1.875 15.9051 1.875 16.2501C1.875 16.5951 2.15438 16.8751 2.5 16.8751H17.5C17.8456 16.8751 18.125 16.5951 18.125 16.2501C18.125 15.9051 17.8456 15.6251 17.5 15.6251H16.25V9.37508H17.6956C18.2031 9.37508 18.6562 9.07258 18.8506 8.60383C19.045 8.13508 18.9387 7.6007 18.5419 7.20633L11.2113 1.00195C10.5106 0.408203 9.49063 0.408203 8.78875 1.00195L1.45812 7.20633L1.42 7.24133C1.06125 7.60008 0.955 8.13508 1.14875 8.60383C1.3425 9.07258 1.79688 9.37508 2.30438 9.37508ZM5 9.37508H7.5V15.6251H5V9.37508ZM11.25 15.6251H8.75V9.37508H11.25V15.6251ZM15 15.6251H12.5V9.37508H15V15.6251ZM9.59625 1.9557C9.71375 1.85695 9.85688 1.80758 10 1.80758C10.1431 1.80758 10.2869 1.85695 10.4037 1.9557L17.6962 8.12508L2.3025 8.12945L9.59625 1.9557ZM19.375 18.7501C19.375 19.0951 19.0956 19.3751 18.75 19.3751H1.25C0.904375 19.3751 0.625 19.0951 0.625 18.7501C0.625 18.4051 0.904375 18.1251 1.25 18.1251H18.75C19.0956 18.1251 19.375 18.4051 19.375 18.7501Z" fill="#5C6271"/>
</svg>
