<svg width="85" height="32" viewBox="0 0 85 32" fill="none" xmlns="http://www.w3.org/2000/svg">
<rect x="0.5" y="0.5" width="84" height="31" rx="4.5" fill="white"/>
<rect x="0.5" y="0.5" width="84" height="31" rx="4.5" stroke="#D8DEE8"/>
<path d="M23.0952 10.405C22.6758 9.9856 22.1071 9.75 21.514 9.75C20.9209 9.75 20.3521 9.9856 19.9327 10.405L12.4627 17.875C12.2088 18.1289 12.0304 18.4482 11.9471 18.7975L11.2627 21.6737C11.2442 21.7516 11.2459 21.833 11.2678 21.91C11.2896 21.9871 11.3308 22.0572 11.3875 22.1138C11.4441 22.1704 11.5143 22.2116 11.5914 22.2333C11.6685 22.2551 11.7498 22.2567 11.8277 22.2381L14.7033 21.5531C15.0528 21.4699 15.3724 21.2914 15.6265 21.0375L23.0952 13.5687C23.5146 13.1493 23.7502 12.5805 23.7502 11.9875C23.7502 11.3944 23.5146 10.8256 23.0952 10.4062V10.405ZM20.5952 11.0675C20.7159 10.9468 20.8591 10.8511 21.0167 10.7858C21.1744 10.7205 21.3433 10.6869 21.514 10.6869C21.6846 10.6869 21.8536 10.7205 22.0112 10.7858C22.1688 10.8511 22.3121 10.9468 22.4327 11.0675C22.5534 11.1881 22.6491 11.3314 22.7144 11.489C22.7797 11.6466 22.8133 11.8156 22.8133 11.9862C22.8133 12.1568 22.7797 12.3258 22.7144 12.4834C22.6491 12.6411 22.5534 12.7843 22.4327 12.905L21.8752 13.4618L20.0377 11.625L20.5952 11.0681V11.0675ZM19.3752 12.2887L21.2127 14.125L14.9627 20.375C14.8315 20.5062 14.6665 20.5981 14.4858 20.6412L12.3508 21.15L12.859 19.015C12.9021 18.8337 12.9946 18.6687 13.1258 18.5375L19.3752 12.2875V12.2887Z" fill="#17181D"/>
<path d="M34.7168 13.8223C34.3691 13.8223 34.0605 13.8906 33.791 14.0273C33.5254 14.1602 33.3008 14.3535 33.1172 14.6074C32.9375 14.8613 32.8008 15.168 32.707 15.5273C32.6133 15.8867 32.5664 16.291 32.5664 16.7402C32.5664 17.3457 32.6406 17.8633 32.7891 18.293C32.9414 18.7188 33.1758 19.0449 33.4922 19.2715C33.8086 19.4941 34.2168 19.6055 34.7168 19.6055C35.0645 19.6055 35.4121 19.5664 35.7598 19.4883C36.1113 19.4102 36.4922 19.2988 36.9023 19.1543V20.6777C36.5234 20.834 36.1504 20.9453 35.7832 21.0117C35.416 21.082 35.0039 21.1172 34.5469 21.1172C33.6641 21.1172 32.9375 20.9355 32.3672 20.5723C31.8008 20.2051 31.3809 19.6934 31.1074 19.0371C30.834 18.377 30.6973 17.6074 30.6973 16.7285C30.6973 16.0801 30.7852 15.4863 30.9609 14.9473C31.1367 14.4082 31.3945 13.9414 31.7344 13.5469C32.0742 13.1523 32.4941 12.8477 32.9941 12.6328C33.4941 12.418 34.0684 12.3105 34.7168 12.3105C35.1426 12.3105 35.5684 12.3652 35.9941 12.4746C36.4238 12.5801 36.834 12.7266 37.2246 12.9141L36.6387 14.3906C36.3184 14.2383 35.9961 14.1055 35.6719 13.9922C35.3477 13.8789 35.0293 13.8223 34.7168 13.8223ZM40.377 11.8828V13.7402C40.377 14.0645 40.3652 14.373 40.3418 14.666C40.3223 14.959 40.3066 15.166 40.2949 15.2871H40.3887C40.5293 15.0605 40.6953 14.877 40.8867 14.7363C41.082 14.5957 41.2969 14.4922 41.5312 14.4258C41.7656 14.3594 42.0176 14.3262 42.2871 14.3262C42.7598 14.3262 43.1719 14.4102 43.5234 14.5781C43.875 14.7422 44.1484 15.002 44.3438 15.3574C44.5391 15.709 44.6367 16.166 44.6367 16.7285V21H42.8496V17.1738C42.8496 16.7051 42.7637 16.3516 42.5918 16.1133C42.4199 15.875 42.1543 15.7559 41.7949 15.7559C41.4355 15.7559 41.1523 15.8398 40.9453 16.0078C40.7383 16.1719 40.5918 16.416 40.5059 16.7402C40.4199 17.0605 40.377 17.4531 40.377 17.918V21H38.5898V11.8828H40.377ZM49.1602 14.3145C50.0391 14.3145 50.7129 14.5059 51.1816 14.8887C51.6504 15.2715 51.8848 15.8535 51.8848 16.6348V21H50.6367L50.291 20.1094H50.2441C50.0566 20.3438 49.8652 20.5352 49.6699 20.6836C49.4746 20.832 49.25 20.9414 48.9961 21.0117C48.7422 21.082 48.4336 21.1172 48.0703 21.1172C47.6836 21.1172 47.3359 21.043 47.0273 20.8945C46.7227 20.7461 46.4824 20.5195 46.3066 20.2148C46.1309 19.9062 46.043 19.5156 46.043 19.043C46.043 18.3477 46.2871 17.8359 46.7754 17.5078C47.2637 17.1758 47.9961 16.9922 48.9727 16.957L50.1094 16.9219V16.6348C50.1094 16.291 50.0195 16.0391 49.8398 15.8789C49.6602 15.7188 49.4102 15.6387 49.0898 15.6387C48.7734 15.6387 48.4629 15.6836 48.1582 15.7734C47.8535 15.8633 47.5488 15.9766 47.2441 16.1133L46.6523 14.9062C47 14.7227 47.3887 14.5781 47.8184 14.4727C48.252 14.3672 48.6992 14.3145 49.1602 14.3145ZM50.1094 17.9648L49.418 17.9883C48.8398 18.0039 48.4375 18.1074 48.2109 18.2988C47.9883 18.4902 47.877 18.7422 47.877 19.0547C47.877 19.3281 47.957 19.5234 48.1172 19.6406C48.2773 19.7539 48.4863 19.8105 48.7441 19.8105C49.127 19.8105 49.4492 19.6973 49.7109 19.4707C49.9766 19.2441 50.1094 18.9219 50.1094 18.5039V17.9648ZM57.4512 14.3262C58.1504 14.3262 58.7129 14.5176 59.1387 14.9004C59.5645 15.2793 59.7773 15.8887 59.7773 16.7285V21H57.9902V17.1738C57.9902 16.7051 57.9043 16.3516 57.7324 16.1133C57.5645 15.875 57.2988 15.7559 56.9355 15.7559C56.3887 15.7559 56.0156 15.9414 55.8164 16.3125C55.6172 16.6836 55.5176 17.2188 55.5176 17.918V21H53.7305V14.4492H55.0957L55.3359 15.2871H55.4355C55.5762 15.0605 55.75 14.877 55.957 14.7363C56.168 14.5957 56.4004 14.4922 56.6543 14.4258C56.9121 14.3594 57.1777 14.3262 57.4512 14.3262ZM63.5332 23.8828C62.6191 23.8828 61.9199 23.7227 61.4355 23.4023C60.9551 23.0859 60.7148 22.6406 60.7148 22.0664C60.7148 21.6719 60.8379 21.3418 61.084 21.0762C61.3301 20.8105 61.6914 20.6211 62.168 20.5078C61.9844 20.4297 61.8242 20.3027 61.6875 20.127C61.5508 19.9473 61.4824 19.7578 61.4824 19.5586C61.4824 19.3086 61.5547 19.1016 61.6992 18.9375C61.8438 18.7695 62.0527 18.6055 62.3262 18.4453C61.9824 18.2969 61.709 18.0586 61.5059 17.7305C61.3066 17.4023 61.207 17.0156 61.207 16.5703C61.207 16.0938 61.3105 15.6895 61.5176 15.3574C61.7285 15.0215 62.0332 14.7656 62.4316 14.5898C62.834 14.4141 63.3223 14.3262 63.8965 14.3262C64.0176 14.3262 64.1582 14.334 64.3184 14.3496C64.4785 14.3652 64.625 14.3828 64.7578 14.4023C64.8945 14.4219 64.9863 14.4375 65.0332 14.4492H67.3184V15.3574L66.293 15.6211C66.3867 15.7656 66.457 15.9199 66.5039 16.084C66.5508 16.248 66.5742 16.4219 66.5742 16.6055C66.5742 17.3086 66.3281 17.8574 65.8359 18.252C65.3477 18.6426 64.668 18.8379 63.7969 18.8379C63.5898 18.8262 63.3945 18.8105 63.2109 18.791C63.1211 18.8613 63.0527 18.9355 63.0059 19.0137C62.959 19.0918 62.9355 19.1738 62.9355 19.2598C62.9355 19.3457 62.9707 19.418 63.041 19.4766C63.1152 19.5312 63.2246 19.5742 63.3691 19.6055C63.5176 19.6328 63.7012 19.6465 63.9199 19.6465H65.0332C65.752 19.6465 66.2988 19.8008 66.6738 20.1094C67.0527 20.418 67.2422 20.8711 67.2422 21.4688C67.2422 22.2344 66.9219 22.8281 66.2812 23.25C65.6445 23.6719 64.7285 23.8828 63.5332 23.8828ZM63.6094 22.7168C64.0352 22.7168 64.4004 22.6758 64.7051 22.5938C65.0137 22.5156 65.25 22.4023 65.4141 22.2539C65.5781 22.1094 65.6602 21.9355 65.6602 21.7324C65.6602 21.5684 65.6113 21.4375 65.5137 21.3398C65.4199 21.2461 65.2754 21.1797 65.0801 21.1406C64.8887 21.1016 64.6426 21.082 64.3418 21.082H63.416C63.1973 21.082 63 21.1172 62.8242 21.1875C62.6523 21.2578 62.5156 21.3555 62.4141 21.4805C62.3125 21.6094 62.2617 21.7578 62.2617 21.9258C62.2617 22.1719 62.3789 22.3652 62.6133 22.5059C62.8516 22.6465 63.1836 22.7168 63.6094 22.7168ZM63.8965 17.748C64.2324 17.748 64.4785 17.6445 64.6348 17.4375C64.791 17.2305 64.8691 16.9492 64.8691 16.5938C64.8691 16.1992 64.7871 15.9043 64.623 15.709C64.4629 15.5098 64.2207 15.4102 63.8965 15.4102C63.5684 15.4102 63.3223 15.5098 63.1582 15.709C62.9941 15.9043 62.9121 16.1992 62.9121 16.5938C62.9121 16.9492 62.9922 17.2305 63.1523 17.4375C63.3164 17.6445 63.5645 17.748 63.8965 17.748ZM71.1035 14.3262C71.709 14.3262 72.2305 14.4434 72.668 14.6777C73.1055 14.9082 73.4434 15.2441 73.6816 15.6855C73.9199 16.127 74.0391 16.666 74.0391 17.3027V18.1699H69.8145C69.834 18.6738 69.9844 19.0703 70.2656 19.3594C70.5508 19.6445 70.9453 19.7871 71.4492 19.7871C71.8672 19.7871 72.25 19.7441 72.5977 19.6582C72.9453 19.5723 73.3027 19.4434 73.6699 19.2715V20.6543C73.3457 20.8145 73.0059 20.9316 72.6504 21.0059C72.2988 21.0801 71.8711 21.1172 71.3672 21.1172C70.7109 21.1172 70.1289 20.9961 69.6211 20.7539C69.1172 20.5117 68.7207 20.1426 68.4316 19.6465C68.1465 19.1504 68.0039 18.5254 68.0039 17.7715C68.0039 17.0059 68.1328 16.3691 68.3906 15.8613C68.6523 15.3496 69.0156 14.9668 69.4805 14.7129C69.9453 14.4551 70.4863 14.3262 71.1035 14.3262ZM71.1152 15.5977C70.7676 15.5977 70.4785 15.709 70.248 15.9316C70.0215 16.1543 69.8906 16.5039 69.8555 16.9805H72.3633C72.3594 16.7148 72.3105 16.4785 72.2168 16.2715C72.127 16.0645 71.9902 15.9004 71.8066 15.7793C71.627 15.6582 71.3965 15.5977 71.1152 15.5977Z" fill="#17181D"/>
</svg>
