
<svg width="33" height="33" viewBox="0 0 33 33" fill="none" xmlns="http://www.w3.org/2000/svg">
<path d="M30.1719 3.375H27.4375V2.28125C27.4375 1.70109 27.207 1.14469 26.7968 0.734454C26.3866 0.324218 25.8302 0.09375 25.25 0.09375C24.6698 0.09375 24.1134 0.324218 23.7032 0.734454C23.293 1.14469 23.0625 1.70109 23.0625 2.28125V3.375H18.6875V2.28125C18.6875 1.70109 18.457 1.14469 18.0468 0.734454C17.6366 0.324218 17.0802 0.09375 16.5 0.09375C15.9198 0.09375 15.3634 0.324218 14.9532 0.734454C14.543 1.14469 14.3125 1.70109 14.3125 2.28125V3.375H9.9375V2.28125C9.9375 1.70109 9.70703 1.14469 9.2968 0.734454C8.88656 0.324218 8.33016 0.09375 7.75 0.09375C7.16984 0.09375 6.61344 0.324218 6.2032 0.734454C5.79297 1.14469 5.5625 1.70109 5.5625 2.28125V3.375H2.82812C2.10292 3.375 1.40742 3.66309 0.89463 4.17588C0.381835 4.68867 0.09375 5.38417 0.09375 6.10938V27.9844C0.09375 28.7096 0.381835 29.4051 0.89463 29.9179C1.40742 30.4307 2.10292 30.7188 2.82812 30.7188H18.1406C18.2857 30.7188 18.4248 30.6611 18.5273 30.5586C18.6299 30.456 18.6875 30.3169 18.6875 30.1719C18.6875 30.0268 18.6299 29.8877 18.5273 29.7852C18.4248 29.6826 18.2857 29.625 18.1406 29.625H2.82812C2.3934 29.6237 1.97686 29.4504 1.66946 29.143C1.36207 28.8356 1.1888 28.4191 1.1875 27.9844V11.0312H31.8125V20.3281C31.8125 20.4732 31.8701 20.6123 31.9727 20.7148C32.0752 20.8174 32.2143 20.875 32.3594 20.875C32.5044 20.875 32.6435 20.8174 32.7461 20.7148C32.8486 20.6123 32.9062 20.4732 32.9062 20.3281V6.10938C32.9062 5.38417 32.6182 4.68867 32.1054 4.17588C31.5926 3.66309 30.8971 3.375 30.1719 3.375ZM24.1562 2.28125C24.1562 1.99117 24.2715 1.71297 24.4766 1.50785C24.6817 1.30273 24.9599 1.1875 25.25 1.1875C25.5401 1.1875 25.8183 1.30273 26.0234 1.50785C26.2285 1.71297 26.3438 1.99117 26.3438 2.28125V5.5625C26.3438 5.85258 26.2285 6.13078 26.0234 6.3359C25.8183 6.54102 25.5401 6.65625 25.25 6.65625C24.9599 6.65625 24.6817 6.54102 24.4766 6.3359C24.2715 6.13078 24.1562 5.85258 24.1562 5.5625V2.28125ZM15.4062 2.28125C15.4062 1.99117 15.5215 1.71297 15.7266 1.50785C15.9317 1.30273 16.2099 1.1875 16.5 1.1875C16.7901 1.1875 17.0683 1.30273 17.2734 1.50785C17.4785 1.71297 17.5938 1.99117 17.5938 2.28125V5.5625C17.5938 5.85258 17.4785 6.13078 17.2734 6.3359C17.0683 6.54102 16.7901 6.65625 16.5 6.65625C16.2099 6.65625 15.9317 6.54102 15.7266 6.3359C15.5215 6.13078 15.4062 5.85258 15.4062 5.5625V2.28125ZM6.65625 2.28125C6.65625 1.99117 6.77148 1.71297 6.9766 1.50785C7.18172 1.30273 7.45992 1.1875 7.75 1.1875C8.04008 1.1875 8.31828 1.30273 8.5234 1.50785C8.72852 1.71297 8.84375 1.99117 8.84375 2.28125V5.5625C8.84375 5.85258 8.72852 6.13078 8.5234 6.3359C8.31828 6.54102 8.04008 6.65625 7.75 6.65625C7.45992 6.65625 7.18172 6.54102 6.9766 6.3359C6.77148 6.13078 6.65625 5.85258 6.65625 5.5625V2.28125ZM31.8125 9.9375H1.1875V6.10938C1.1888 5.67465 1.36207 5.25811 1.66946 4.95071C1.97686 4.64332 2.3934 4.47005 2.82812 4.46875H5.5625V5.5625C5.5625 6.14266 5.79297 6.69906 6.2032 7.1093C6.61344 7.51953 7.16984 7.75 7.75 7.75C8.33016 7.75 8.88656 7.51953 9.2968 7.1093C9.70703 6.69906 9.9375 6.14266 9.9375 5.5625V4.46875H14.3125V5.5625C14.3125 6.14266 14.543 6.69906 14.9532 7.1093C15.3634 7.51953 15.9198 7.75 16.5 7.75C17.0802 7.75 17.6366 7.51953 18.0468 7.1093C18.457 6.69906 18.6875 6.14266 18.6875 5.5625V4.46875H23.0625V5.5625C23.0625 6.14266 23.293 6.69906 23.7032 7.1093C24.1134 7.51953 24.6698 7.75 25.25 7.75C25.8302 7.75 26.3866 7.51953 26.7968 7.1093C27.207 6.69906 27.4375 6.14266 27.4375 5.5625V4.46875H30.1719C30.6066 4.47005 31.0231 4.64332 31.3305 4.95071C31.6379 5.25811 31.8112 5.67465 31.8125 6.10938V9.9375Z" fill="#3B3F4A"/>
<path d="M15.4062 14.8594C15.4062 14.5693 15.291 14.2911 15.0859 14.086C14.8808 13.8809 14.6026 13.7656 14.3125 13.7656H12.125C11.8349 13.7656 11.5567 13.8809 11.3516 14.086C11.1465 14.2911 11.0312 14.5693 11.0312 14.8594V16.5C11.0312 16.7901 11.1465 17.0683 11.3516 17.2734C11.5567 17.4785 11.8349 17.5938 12.125 17.5938H14.3125C14.6026 17.5938 14.8808 17.4785 15.0859 17.2734C15.291 17.0683 15.4062 16.7901 15.4062 16.5V14.8594ZM12.125 16.5V14.8594H14.3125V16.5H12.125Z" fill="#3B3F4A"/>
<path d="M8.84375 14.8594C8.84375 14.5693 8.72852 14.2911 8.5234 14.086C8.31828 13.8809 8.04008 13.7656 7.75 13.7656H5.5625C5.27242 13.7656 4.99422 13.8809 4.7891 14.086C4.58398 14.2911 4.46875 14.5693 4.46875 14.8594V16.5C4.46875 16.7901 4.58398 17.0683 4.7891 17.2734C4.99422 17.4785 5.27242 17.5938 5.5625 17.5938H7.75C8.04008 17.5938 8.31828 17.4785 8.5234 17.2734C8.72852 17.0683 8.84375 16.7901 8.84375 16.5V14.8594ZM5.5625 16.5V14.8594H7.75V16.5H5.5625Z" fill="#3B3F4A"/>
<path d="M27.4375 17.5938C27.7276 17.5938 28.0058 17.4785 28.2109 17.2734C28.416 17.0683 28.5312 16.7901 28.5312 16.5V14.8594C28.5312 14.5693 28.416 14.2911 28.2109 14.086C28.0058 13.8809 27.7276 13.7656 27.4375 13.7656H25.25C24.9599 13.7656 24.6817 13.8809 24.4766 14.086C24.2715 14.2911 24.1562 14.5693 24.1562 14.8594V16.5C24.1562 16.7901 24.2715 17.0683 24.4766 17.2734C24.6817 17.4785 24.9599 17.5938 25.25 17.5938H27.4375ZM25.25 14.8594H27.4375V16.5H25.25V14.8594Z" fill="#3B3F4A"/>
<path d="M15.4062 19.7812C15.4062 19.4912 15.291 19.213 15.0859 19.0079C14.8808 18.8027 14.6026 18.6875 14.3125 18.6875H12.125C11.8349 18.6875 11.5567 18.8027 11.3516 19.0079C11.1465 19.213 11.0312 19.4912 11.0312 19.7812V21.4219C11.0312 21.712 11.1465 21.9902 11.3516 22.1953C11.5567 22.4004 11.8349 22.5156 12.125 22.5156H14.3125C14.6026 22.5156 14.8808 22.4004 15.0859 22.1953C15.291 21.9902 15.4062 21.712 15.4062 21.4219V19.7812ZM12.125 21.4219V19.7812H14.3125V21.4219H12.125Z" fill="#3B3F4A"/>
<path d="M8.84375 19.7812C8.84375 19.4912 8.72852 19.213 8.5234 19.0079C8.31828 18.8027 8.04008 18.6875 7.75 18.6875H5.5625C5.27242 18.6875 4.99422 18.8027 4.7891 19.0079C4.58398 19.213 4.46875 19.4912 4.46875 19.7812V21.4219C4.46875 21.712 4.58398 21.9902 4.7891 22.1953C4.99422 22.4004 5.27242 22.5156 5.5625 22.5156H7.75C8.04008 22.5156 8.31828 22.4004 8.5234 22.1953C8.72852 21.9902 8.84375 21.712 8.84375 21.4219V19.7812ZM5.5625 21.4219V19.7812H7.75V21.4219H5.5625Z" fill="#3B3F4A"/>
<path d="M14.3125 23.6094H12.125C11.8349 23.6094 11.5567 23.7246 11.3516 23.9297C11.1465 24.1348 11.0312 24.413 11.0312 24.7031V26.3438C11.0312 26.6338 11.1465 26.912 11.3516 27.1171C11.5567 27.3223 11.8349 27.4375 12.125 27.4375H14.3125C14.6026 27.4375 14.8808 27.3223 15.0859 27.1171C15.291 26.912 15.4062 26.6338 15.4062 26.3438V24.7031C15.4062 24.413 15.291 24.1348 15.0859 23.9297C14.8808 23.7246 14.6026 23.6094 14.3125 23.6094ZM12.125 26.3438V24.7031H14.3125V26.3438H12.125Z" fill="#3B3F4A"/>
<path d="M18.6875 17.5938H20.875C21.1651 17.5938 21.4433 17.4785 21.6484 17.2734C21.8535 17.0683 21.9688 16.7901 21.9688 16.5V14.8594C21.9688 14.5693 21.8535 14.2911 21.6484 14.086C21.4433 13.8809 21.1651 13.7656 20.875 13.7656H18.6875C18.3974 13.7656 18.1192 13.8809 17.9141 14.086C17.709 14.2911 17.5938 14.5693 17.5938 14.8594V16.5C17.5938 16.7901 17.709 17.0683 17.9141 17.2734C18.1192 17.4785 18.3974 17.5938 18.6875 17.5938ZM18.6875 14.8594H20.875V16.5H18.6875V14.8594Z" fill="#3B3F4A"/>
<path d="M17.5938 21.4219C17.5938 21.712 17.709 21.9902 17.9141 22.1953C18.1192 22.4004 18.3974 22.5156 18.6875 22.5156C18.8325 22.5156 18.9716 22.458 19.0742 22.3554C19.1768 22.2529 19.2344 22.1138 19.2344 21.9688C19.2344 21.8237 19.1768 21.6846 19.0742 21.5821C18.9716 21.4795 18.8325 21.4219 18.6875 21.4219V19.7812H20.875C21.02 19.7812 21.1591 19.7236 21.2617 19.6211C21.3643 19.5185 21.4219 19.3794 21.4219 19.2344C21.4219 19.0893 21.3643 18.9502 21.2617 18.8477C21.1591 18.7451 21.02 18.6875 20.875 18.6875H18.6875C18.3974 18.6875 18.1192 18.8027 17.9141 19.0079C17.709 19.213 17.5938 19.4912 17.5938 19.7812V21.4219Z" fill="#3B3F4A"/>
<path d="M7.75 23.6094H5.5625C5.27242 23.6094 4.99422 23.7246 4.7891 23.9297C4.58398 24.1348 4.46875 24.413 4.46875 24.7031V26.3438C4.46875 26.6338 4.58398 26.912 4.7891 27.1171C4.99422 27.3223 5.27242 27.4375 5.5625 27.4375H7.75C8.04008 27.4375 8.31828 27.3223 8.5234 27.1171C8.72852 26.912 8.84375 26.6338 8.84375 26.3438V24.7031C8.84375 24.413 8.72852 24.1348 8.5234 23.9297C8.31828 23.7246 8.04008 23.6094 7.75 23.6094ZM5.5625 26.3438V24.7031H7.75V26.3438H5.5625Z" fill="#3B3F4A"/>
<path d="M25.7969 18.6875C24.3908 18.6875 23.0163 19.1045 21.8471 19.8856C20.678 20.6668 19.7668 21.7772 19.2287 23.0762C18.6906 24.3753 18.5498 25.8048 18.8241 27.1838C19.0984 28.5629 19.7755 29.8297 20.7698 30.824C21.7641 31.8182 23.0308 32.4953 24.4099 32.7696C25.789 33.044 27.2184 32.9032 28.5175 32.3651C29.8166 31.827 30.9269 30.9158 31.7081 29.7466C32.4893 28.5775 32.9063 27.203 32.9063 25.7969C32.9041 23.912 32.1544 22.105 30.8216 20.7722C29.4888 19.4394 27.6817 18.6897 25.7969 18.6875ZM25.7969 31.8125C24.6071 31.8125 23.444 31.4597 22.4548 30.7987C21.4655 30.1377 20.6945 29.1982 20.2392 28.099C19.7839 26.9997 19.6647 25.7902 19.8968 24.6233C20.129 23.4564 20.7019 22.3845 21.5432 21.5432C22.3845 20.7019 23.4564 20.129 24.6233 19.8968C25.7902 19.6647 26.9997 19.7839 28.099 20.2392C29.1982 20.6945 30.1377 21.4655 30.7987 22.4548C31.4597 23.444 31.8125 24.6071 31.8125 25.7969C31.8106 27.3917 31.1762 28.9207 30.0485 30.0485C28.9207 31.1762 27.3917 31.8106 25.7969 31.8125Z" fill="#3B3F4A"/>
<path d="M28.9573 23.5041L24.7037 27.7577L22.7705 25.8239C22.6674 25.7243 22.5293 25.6692 22.3859 25.6705C22.2425 25.6717 22.1053 25.7292 22.0039 25.8306C21.9025 25.932 21.845 26.0692 21.8438 26.2126C21.8425 26.3559 21.8976 26.4941 21.9973 26.5972L24.3171 28.9176C24.4197 29.0201 24.5587 29.0777 24.7037 29.0777C24.8488 29.0777 24.9878 29.0201 25.0904 28.9176L29.7306 24.2774C29.8302 24.1742 29.8854 24.0361 29.8841 23.8927C29.8829 23.7493 29.8254 23.6122 29.724 23.5108C29.6226 23.4094 29.4854 23.3519 29.342 23.3506C29.1986 23.3494 29.0605 23.4045 28.9573 23.5041Z" fill="#3B3F4A"/>

<svg width="35" height="35" viewBox="0 0 35 35" fill="none" xmlns="http://www.w3.org/2000/svg">
<path d="M31.1719 4.375H28.4375V3.28125C28.4375 2.70109 28.207 2.14469 27.7968 1.73445C27.3866 1.32422 26.8302 1.09375 26.25 1.09375C25.6698 1.09375 25.1134 1.32422 24.7032 1.73445C24.293 2.14469 24.0625 2.70109 24.0625 3.28125V4.375H19.6875V3.28125C19.6875 2.70109 19.457 2.14469 19.0468 1.73445C18.6366 1.32422 18.0802 1.09375 17.5 1.09375C16.9198 1.09375 16.3634 1.32422 15.9532 1.73445C15.543 2.14469 15.3125 2.70109 15.3125 3.28125V4.375H10.9375V3.28125C10.9375 2.70109 10.707 2.14469 10.2968 1.73445C9.88656 1.32422 9.33016 1.09375 8.75 1.09375C8.16984 1.09375 7.61344 1.32422 7.2032 1.73445C6.79297 2.14469 6.5625 2.70109 6.5625 3.28125V4.375H3.82812C3.10292 4.375 2.40742 4.66309 1.89463 5.17588C1.38184 5.68867 1.09375 6.38417 1.09375 7.10938V28.9844C1.09375 29.7096 1.38184 30.4051 1.89463 30.9179C2.40742 31.4307 3.10292 31.7188 3.82812 31.7188H19.1406C19.2857 31.7188 19.4248 31.6611 19.5273 31.5586C19.6299 31.456 19.6875 31.3169 19.6875 31.1719C19.6875 31.0268 19.6299 30.8877 19.5273 30.7852C19.4248 30.6826 19.2857 30.625 19.1406 30.625H3.82812C3.3934 30.6237 2.97686 30.4504 2.66946 30.143C2.36207 29.8356 2.1888 29.4191 2.1875 28.9844V12.0312H32.8125V21.3281C32.8125 21.4732 32.8701 21.6123 32.9727 21.7148C33.0752 21.8174 33.2143 21.875 33.3594 21.875C33.5044 21.875 33.6435 21.8174 33.7461 21.7148C33.8486 21.6123 33.9062 21.4732 33.9062 21.3281V7.10938C33.9062 6.38417 33.6182 5.68867 33.1054 5.17588C32.5926 4.66309 31.8971 4.375 31.1719 4.375ZM25.1562 3.28125C25.1562 2.99117 25.2715 2.71297 25.4766 2.50785C25.6817 2.30273 25.9599 2.1875 26.25 2.1875C26.5401 2.1875 26.8183 2.30273 27.0234 2.50785C27.2285 2.71297 27.3438 2.99117 27.3438 3.28125V6.5625C27.3438 6.85258 27.2285 7.13078 27.0234 7.3359C26.8183 7.54102 26.5401 7.65625 26.25 7.65625C25.9599 7.65625 25.6817 7.54102 25.4766 7.3359C25.2715 7.13078 25.1562 6.85258 25.1562 6.5625V3.28125ZM16.4062 3.28125C16.4062 2.99117 16.5215 2.71297 16.7266 2.50785C16.9317 2.30273 17.2099 2.1875 17.5 2.1875C17.7901 2.1875 18.0683 2.30273 18.2734 2.50785C18.4785 2.71297 18.5938 2.99117 18.5938 3.28125V6.5625C18.5938 6.85258 18.4785 7.13078 18.2734 7.3359C18.0683 7.54102 17.7901 7.65625 17.5 7.65625C17.2099 7.65625 16.9317 7.54102 16.7266 7.3359C16.5215 7.13078 16.4062 6.85258 16.4062 6.5625V3.28125ZM7.65625 3.28125C7.65625 2.99117 7.77148 2.71297 7.9766 2.50785C8.18172 2.30273 8.45992 2.1875 8.75 2.1875C9.04008 2.1875 9.31828 2.30273 9.5234 2.50785C9.72852 2.71297 9.84375 2.99117 9.84375 3.28125V6.5625C9.84375 6.85258 9.72852 7.13078 9.5234 7.3359C9.31828 7.54102 9.04008 7.65625 8.75 7.65625C8.45992 7.65625 8.18172 7.54102 7.9766 7.3359C7.77148 7.13078 7.65625 6.85258 7.65625 6.5625V3.28125ZM32.8125 10.9375H2.1875V7.10938C2.1888 6.67465 2.36207 6.25811 2.66946 5.95071C2.97686 5.64332 3.3934 5.47005 3.82812 5.46875H6.5625V6.5625C6.5625 7.14266 6.79297 7.69906 7.2032 8.1093C7.61344 8.51953 8.16984 8.75 8.75 8.75C9.33016 8.75 9.88656 8.51953 10.2968 8.1093C10.707 7.69906 10.9375 7.14266 10.9375 6.5625V5.46875H15.3125V6.5625C15.3125 7.14266 15.543 7.69906 15.9532 8.1093C16.3634 8.51953 16.9198 8.75 17.5 8.75C18.0802 8.75 18.6366 8.51953 19.0468 8.1093C19.457 7.69906 19.6875 7.14266 19.6875 6.5625V5.46875H24.0625V6.5625C24.0625 7.14266 24.293 7.69906 24.7032 8.1093C25.1134 8.51953 25.6698 8.75 26.25 8.75C26.8302 8.75 27.3866 8.51953 27.7968 8.1093C28.207 7.69906 28.4375 7.14266 28.4375 6.5625V5.46875H31.1719C31.6066 5.47005 32.0231 5.64332 32.3305 5.95071C32.6379 6.25811 32.8112 6.67465 32.8125 7.10938V10.9375Z" fill="#3B3F4A"/>
<path d="M16.4062 15.8594C16.4062 15.5693 16.291 15.2911 16.0859 15.086C15.8808 14.8809 15.6026 14.7656 15.3125 14.7656H13.125C12.8349 14.7656 12.5567 14.8809 12.3516 15.086C12.1465 15.2911 12.0312 15.5693 12.0312 15.8594V17.5C12.0312 17.7901 12.1465 18.0683 12.3516 18.2734C12.5567 18.4785 12.8349 18.5938 13.125 18.5938H15.3125C15.6026 18.5938 15.8808 18.4785 16.0859 18.2734C16.291 18.0683 16.4062 17.7901 16.4062 17.5V15.8594ZM13.125 17.5V15.8594H15.3125V17.5H13.125Z" fill="#3B3F4A"/>
<path d="M9.84375 15.8594C9.84375 15.5693 9.72852 15.2911 9.5234 15.086C9.31828 14.8809 9.04008 14.7656 8.75 14.7656H6.5625C6.27242 14.7656 5.99422 14.8809 5.7891 15.086C5.58398 15.2911 5.46875 15.5693 5.46875 15.8594V17.5C5.46875 17.7901 5.58398 18.0683 5.7891 18.2734C5.99422 18.4785 6.27242 18.5938 6.5625 18.5938H8.75C9.04008 18.5938 9.31828 18.4785 9.5234 18.2734C9.72852 18.0683 9.84375 17.7901 9.84375 17.5V15.8594ZM6.5625 17.5V15.8594H8.75V17.5H6.5625Z" fill="#3B3F4A"/>
<path d="M28.4375 18.5938C28.7276 18.5938 29.0058 18.4785 29.2109 18.2734C29.416 18.0683 29.5312 17.7901 29.5312 17.5V15.8594C29.5312 15.5693 29.416 15.2911 29.2109 15.086C29.0058 14.8809 28.7276 14.7656 28.4375 14.7656H26.25C25.9599 14.7656 25.6817 14.8809 25.4766 15.086C25.2715 15.2911 25.1562 15.5693 25.1562 15.8594V17.5C25.1562 17.7901 25.2715 18.0683 25.4766 18.2734C25.6817 18.4785 25.9599 18.5938 26.25 18.5938H28.4375ZM26.25 15.8594H28.4375V17.5H26.25V15.8594Z" fill="#3B3F4A"/>
<path d="M16.4062 20.7812C16.4062 20.4912 16.291 20.213 16.0859 20.0079C15.8808 19.8027 15.6026 19.6875 15.3125 19.6875H13.125C12.8349 19.6875 12.5567 19.8027 12.3516 20.0079C12.1465 20.213 12.0312 20.4912 12.0312 20.7812V22.4219C12.0312 22.712 12.1465 22.9902 12.3516 23.1953C12.5567 23.4004 12.8349 23.5156 13.125 23.5156H15.3125C15.6026 23.5156 15.8808 23.4004 16.0859 23.1953C16.291 22.9902 16.4062 22.712 16.4062 22.4219V20.7812ZM13.125 22.4219V20.7812H15.3125V22.4219H13.125Z" fill="#3B3F4A"/>
<path d="M9.84375 20.7812C9.84375 20.4912 9.72852 20.213 9.5234 20.0079C9.31828 19.8027 9.04008 19.6875 8.75 19.6875H6.5625C6.27242 19.6875 5.99422 19.8027 5.7891 20.0079C5.58398 20.213 5.46875 20.4912 5.46875 20.7812V22.4219C5.46875 22.712 5.58398 22.9902 5.7891 23.1953C5.99422 23.4004 6.27242 23.5156 6.5625 23.5156H8.75C9.04008 23.5156 9.31828 23.4004 9.5234 23.1953C9.72852 22.9902 9.84375 22.712 9.84375 22.4219V20.7812ZM6.5625 22.4219V20.7812H8.75V22.4219H6.5625Z" fill="#3B3F4A"/>
<path d="M15.3125 24.6094H13.125C12.8349 24.6094 12.5567 24.7246 12.3516 24.9297C12.1465 25.1348 12.0312 25.413 12.0312 25.7031V27.3438C12.0312 27.6338 12.1465 27.912 12.3516 28.1171C12.5567 28.3223 12.8349 28.4375 13.125 28.4375H15.3125C15.6026 28.4375 15.8808 28.3223 16.0859 28.1171C16.291 27.912 16.4062 27.6338 16.4062 27.3438V25.7031C16.4062 25.413 16.291 25.1348 16.0859 24.9297C15.8808 24.7246 15.6026 24.6094 15.3125 24.6094ZM13.125 27.3438V25.7031H15.3125V27.3438H13.125Z" fill="#3B3F4A"/>
<path d="M19.6875 18.5938H21.875C22.1651 18.5938 22.4433 18.4785 22.6484 18.2734C22.8535 18.0683 22.9688 17.7901 22.9688 17.5V15.8594C22.9688 15.5693 22.8535 15.2911 22.6484 15.086C22.4433 14.8809 22.1651 14.7656 21.875 14.7656H19.6875C19.3974 14.7656 19.1192 14.8809 18.9141 15.086C18.709 15.2911 18.5938 15.5693 18.5938 15.8594V17.5C18.5938 17.7901 18.709 18.0683 18.9141 18.2734C19.1192 18.4785 19.3974 18.5938 19.6875 18.5938ZM19.6875 15.8594H21.875V17.5H19.6875V15.8594Z" fill="#3B3F4A"/>
<path d="M18.5938 22.4219C18.5938 22.712 18.709 22.9902 18.9141 23.1953C19.1192 23.4004 19.3974 23.5156 19.6875 23.5156C19.8325 23.5156 19.9716 23.458 20.0742 23.3554C20.1768 23.2529 20.2344 23.1138 20.2344 22.9688C20.2344 22.8237 20.1768 22.6846 20.0742 22.5821C19.9716 22.4795 19.8325 22.4219 19.6875 22.4219V20.7812H21.875C22.02 20.7812 22.1591 20.7236 22.2617 20.6211C22.3643 20.5185 22.4219 20.3794 22.4219 20.2344C22.4219 20.0893 22.3643 19.9502 22.2617 19.8477C22.1591 19.7451 22.02 19.6875 21.875 19.6875H19.6875C19.3974 19.6875 19.1192 19.8027 18.9141 20.0079C18.709 20.213 18.5938 20.4912 18.5938 20.7812V22.4219Z" fill="#3B3F4A"/>
<path d="M8.75 24.6094H6.5625C6.27242 24.6094 5.99422 24.7246 5.7891 24.9297C5.58398 25.1348 5.46875 25.413 5.46875 25.7031V27.3438C5.46875 27.6338 5.58398 27.912 5.7891 28.1171C5.99422 28.3223 6.27242 28.4375 6.5625 28.4375H8.75C9.04008 28.4375 9.31828 28.3223 9.5234 28.1171C9.72852 27.912 9.84375 27.6338 9.84375 27.3438V25.7031C9.84375 25.413 9.72852 25.1348 9.5234 24.9297C9.31828 24.7246 9.04008 24.6094 8.75 24.6094ZM6.5625 27.3438V25.7031H8.75V27.3438H6.5625Z" fill="#3B3F4A"/>
<path d="M26.7969 19.6875C25.3908 19.6875 24.0163 20.1045 22.8471 20.8856C21.678 21.6668 20.7668 22.7772 20.2287 24.0762C19.6906 25.3753 19.5498 26.8048 19.8241 28.1838C20.0984 29.5629 20.7755 30.8297 21.7698 31.824C22.7641 32.8182 24.0308 33.4953 25.4099 33.7696C26.789 34.044 28.2184 33.9032 29.5175 33.3651C30.8166 32.827 31.9269 31.9158 32.7081 30.7466C33.4893 29.5775 33.9063 28.203 33.9063 26.7969C33.9041 24.912 33.1544 23.105 31.8216 21.7722C30.4888 20.4394 28.6817 19.6897 26.7969 19.6875ZM26.7969 32.8125C25.6071 32.8125 24.444 32.4597 23.4548 31.7987C22.4655 31.1377 21.6945 30.1982 21.2392 29.099C20.7839 27.9997 20.6647 26.7902 20.8968 25.6233C21.129 24.4564 21.7019 23.3845 22.5432 22.5432C23.3845 21.7019 24.4564 21.129 25.6233 20.8968C26.7902 20.6647 27.9997 20.7839 29.099 21.2392C30.1982 21.6945 31.1377 22.4655 31.7987 23.4548C32.4597 24.444 32.8125 25.6071 32.8125 26.7969C32.8106 28.3917 32.1762 29.9207 31.0485 31.0485C29.9207 32.1762 28.3917 32.8106 26.7969 32.8125Z" fill="#3B3F4A"/>
<path d="M29.9573 24.5041L25.7037 28.7577L23.7705 26.8239C23.6674 26.7243 23.5293 26.6692 23.3859 26.6705C23.2425 26.6717 23.1053 26.7292 23.0039 26.8306C22.9025 26.932 22.845 27.0692 22.8438 27.2126C22.8425 27.3559 22.8976 27.4941 22.9973 27.5972L25.3171 29.9176C25.4197 30.0201 25.5587 30.0777 25.7037 30.0777C25.8488 30.0777 25.9878 30.0201 26.0904 29.9176L30.7306 25.2774C30.8302 25.1742 30.8854 25.0361 30.8841 24.8927C30.8829 24.7493 30.8254 24.6122 30.724 24.5108C30.6226 24.4094 30.4854 24.3519 30.342 24.3506C30.1986 24.3494 30.0605 24.4045 29.9573 24.5041Z" fill="#3B3F4A"/>

</svg>
