<svg width="27" height="28" viewBox="0 0 27 28" fill="none" xmlns="http://www.w3.org/2000/svg">
<path d="M25.5963 10.7395V6.83497C25.5945 5.29973 24.3503 4.05552 22.8151 4.05374H22.0828V3.61461C22.0764 2.36862 21.0646 1.3623 19.8188 1.3623C18.573 1.3623 17.5613 2.36862 17.5546 3.61461V4.05374H9.37479V3.61461C9.36845 2.36862 8.35658 1.3623 7.11078 1.3623C5.86498 1.3623 4.85332 2.36862 4.84658 3.61461V4.05374H4.11405C2.579 4.05552 1.33479 5.29973 1.33301 6.83497V23.8935C1.33479 25.4288 2.579 26.673 4.11405 26.6748H22.8151C24.3503 26.673 25.5945 25.4288 25.5963 23.8935V11.1409C25.6403 11.0107 25.6403 10.8697 25.5963 10.7395ZM19.8188 2.61663C20.3695 2.61742 20.8158 3.06348 20.8163 3.61461V4.94804C20.8122 5.4958 20.3665 5.9377 19.8184 5.9377C19.2704 5.9377 18.8249 5.4958 18.8206 4.94804V3.61461C18.8212 3.06348 19.2676 2.61722 19.8188 2.61663ZM6.1126 3.61461C6.11696 3.06646 6.56243 2.62456 7.11039 2.62456C7.65855 2.62456 8.10381 3.06646 8.10837 3.61461V4.94804C8.10381 5.4958 7.65855 5.9377 7.11039 5.9377C6.56243 5.9377 6.11696 5.4958 6.1126 4.94804V3.61461ZM4.11405 5.31995H4.87751C5.0595 6.41151 6.00376 7.21165 7.11039 7.21165C8.21721 7.21165 9.16147 6.41151 9.34347 5.31995H17.5857C17.7677 6.41151 18.7121 7.21165 19.8188 7.21165C20.9254 7.21165 21.8698 6.41151 22.0516 5.31995H22.8151C23.6515 5.32095 24.3291 5.99856 24.3301 6.83497V10.3069H2.59923V6.83517C2.60002 5.99876 3.27803 5.32095 4.11405 5.31995ZM22.8151 25.4086H4.11405C3.27803 25.4076 2.60022 24.7299 2.59923 23.8935V11.5731H24.3301V23.8935C24.3291 24.7299 23.6515 25.4076 22.8151 25.4086Z" fill="#8A929C"/>
<path d="M16.6148 15.5807L12.4583 19.6391L10.3481 17.5787C10.0995 17.3358 9.70182 17.3386 9.45678 17.5848C9.21175 17.8312 9.21096 18.2289 9.4548 18.4761L9.46353 18.4845L12.0162 20.9771C12.262 21.2171 12.6547 21.2171 12.9006 20.9771L17.4996 16.4871C17.7476 16.2433 17.7525 15.8448 17.5107 15.5948C17.2684 15.345 16.8701 15.3375 16.6183 15.5775L16.6148 15.5809V15.5807Z" fill="#8A929C"/>
</svg>
