<svg width="20" height="20" viewBox="0 0 20 20" fill="none" xmlns="http://www.w3.org/2000/svg">
<path d="M7.4998 15.8332C7.33428 15.8341 7.17222 15.7858 7.03429 15.6943C6.89636 15.6028 6.7888 15.4723 6.72533 15.3194C6.66185 15.1665 6.64534 14.9982 6.6779 14.8359C6.71046 14.6736 6.79061 14.5247 6.90813 14.4082L11.3248 9.99983L6.90813 5.5915C6.75121 5.43458 6.66306 5.22175 6.66306 4.99983C6.66306 4.88995 6.6847 4.78114 6.72675 4.67962C6.7688 4.5781 6.83044 4.48586 6.90813 4.40816C6.98583 4.33046 7.07807 4.26883 7.17959 4.22678C7.28111 4.18473 7.38992 4.16309 7.4998 4.16309C7.72172 4.16309 7.93455 4.25124 8.09147 4.40816L13.0915 9.40816C13.2467 9.5643 13.3338 9.77551 13.3338 9.99566C13.3338 10.2158 13.2467 10.427 13.0915 10.5832L8.09147 15.5832C8.01429 15.6619 7.92225 15.7245 7.82069 15.7675C7.71913 15.8104 7.61006 15.8327 7.4998 15.8332Z" fill="#8A929C"/>
</svg>
