<svg width="18" height="18" viewBox="0 0 18 18" fill="none" xmlns="http://www.w3.org/2000/svg">
<path d="M16.4596 1.54003C15.9005 0.980878 15.1421 0.666748 14.3513 0.666748C13.5605 0.666748 12.8021 0.980878 12.243 1.54003L2.28298 11.5C1.94447 11.8386 1.70649 12.2643 1.59548 12.73L0.682979 16.565C0.658272 16.6689 0.660588 16.7774 0.689707 16.8801C0.718826 16.9828 0.773777 17.0764 0.849319 17.1518C0.92486 17.2273 1.01847 17.2822 1.12123 17.3112C1.22399 17.3402 1.33246 17.3424 1.43631 17.3175L5.27048 16.4042C5.73647 16.2933 6.16255 16.0553 6.50131 15.7167L16.4596 5.75837C17.0188 5.1992 17.3329 4.44081 17.3329 3.65003C17.3329 2.85926 17.0188 2.10087 16.4596 1.5417V1.54003ZM13.1263 2.42337C13.2872 2.2625 13.4782 2.13489 13.6883 2.04783C13.8985 1.96077 14.1238 1.91596 14.3513 1.91596C14.5788 1.91596 14.8041 1.96077 15.0143 2.04783C15.2245 2.13489 15.4154 2.2625 15.5763 2.42337C15.7372 2.58424 15.8648 2.77522 15.9519 2.9854C16.0389 3.19559 16.0837 3.42086 16.0837 3.64837C16.0837 3.87587 16.0389 4.10115 15.9519 4.31133C15.8648 4.52152 15.7372 4.7125 15.5763 4.87337L14.833 5.61587L12.383 3.1667L13.1263 2.4242V2.42337ZM11.4996 4.0517L13.9496 6.50003L5.61631 14.8334C5.44131 15.0084 5.22131 15.1309 4.98048 15.1884L2.13381 15.8667L2.81131 13.02C2.86881 12.7784 2.99215 12.5584 3.16715 12.3834L11.4996 4.05004V4.0517Z" fill="#5C6271"/>
</svg>
