<svg width="20" height="20" viewBox="0 0 20 20" fill="none" xmlns="http://www.w3.org/2000/svg">
<path d="M1.87501 7.63114V17.1624C1.87501 17.4395 1.92969 17.7139 2.03593 17.9699C2.14217 18.2258 2.29788 18.4583 2.49412 18.6539C2.69037 18.8496 2.9233 19.0046 3.17956 19.1101C3.43583 19.2156 3.71039 19.2695 3.98751 19.2686H16.0188C16.5774 19.2686 17.1131 19.0467 17.5081 18.6517C17.9031 18.2567 18.125 17.721 18.125 17.1624V7.63114C18.125 7.07195 17.9033 6.53557 17.5085 6.13958C17.1137 5.74359 16.578 5.52029 16.0188 5.51864H14.6813C14.8657 5.32839 15.0292 5.11885 15.1688 4.89364C15.436 4.44606 15.5833 3.93711 15.5965 3.41598C15.6096 2.89484 15.4881 2.37912 15.2438 1.91864C15.0312 1.54743 14.7218 1.2409 14.3487 1.03176C13.9755 0.822622 13.5526 0.718718 13.125 0.731139C12.6567 0.716213 12.1908 0.8029 11.7592 0.985237C11.3277 1.16757 10.9407 1.44123 10.625 1.78739C10.3753 2.05179 10.1648 2.35067 10 2.67489C9.84485 2.35258 9.64496 2.0538 9.40626 1.78739C9.09055 1.44123 8.70361 1.16757 8.27204 0.985237C7.84047 0.8029 7.37453 0.716213 6.90626 0.731139C6.47849 0.718311 6.0552 0.821306 5.68115 1.02924C5.3071 1.23717 4.99618 1.5423 4.78126 1.91239C4.53689 2.37287 4.41541 2.88859 4.42855 3.40973C4.44168 3.93086 4.589 4.43981 4.85626 4.88739C4.99587 5.11261 5.15931 5.32214 5.34376 5.51239H3.98751C3.70957 5.51239 3.43435 5.56724 3.17764 5.67379C2.92094 5.78034 2.68778 5.93651 2.49153 6.13333C2.29529 6.33016 2.13981 6.56378 2.03402 6.8208C1.92822 7.07782 1.87419 7.3532 1.87501 7.63114ZM16.875 7.63114V17.1624C16.875 17.2748 16.8529 17.3862 16.8098 17.4901C16.7668 17.5939 16.7037 17.6883 16.6242 17.7678C16.5447 17.8474 16.4503 17.9104 16.3464 17.9535C16.2426 17.9965 16.1312 18.0186 16.0188 18.0186H10.625L10.6688 6.76864H16.0375C16.2619 6.77515 16.4749 6.86888 16.6313 7.02993C16.7877 7.19098 16.8751 7.40666 16.875 7.63114ZM13.125 2.00614C13.3336 1.99208 13.5419 2.03674 13.7264 2.13506C13.9109 2.23338 14.0641 2.38142 14.1688 2.56239C14.3062 2.83222 14.3709 3.13319 14.3567 3.43565C14.3424 3.73812 14.2497 4.03166 14.0875 4.28739C13.8188 4.75614 13.1125 5.53739 11.4125 5.53739H10.625C10.625 4.78114 10.7688 3.43739 11.4938 2.64364C11.6991 2.41862 11.9522 2.24235 12.2344 2.12772C12.5166 2.0131 12.8209 1.96301 13.125 1.98114V2.00614ZM5.91876 4.26239C5.75661 4.00666 5.66385 3.71312 5.6496 3.41065C5.63535 3.10819 5.70012 2.80722 5.83751 2.53739C5.94166 2.35741 6.09392 2.21002 6.27718 2.11177C6.46045 2.01351 6.66747 1.96828 6.87501 1.98114C7.17108 1.96296 7.46756 2.00945 7.74386 2.11738C8.02016 2.22531 8.26965 2.39209 8.47501 2.60614C9.20626 3.41864 9.33751 4.76239 9.37501 5.51864H8.59376C6.87501 5.51864 6.18751 4.73114 5.91876 4.26239ZM3.12501 7.63114C3.12501 7.40239 3.21588 7.18301 3.37763 7.02126C3.53938 6.85951 3.75876 6.76864 3.98751 6.76864H9.37501L9.33126 18.0186H3.98751C3.87454 18.0195 3.76253 17.9979 3.65792 17.9553C3.55331 17.9126 3.45818 17.8497 3.37801 17.7701C3.29783 17.6905 3.2342 17.5958 3.19078 17.4915C3.14736 17.3872 3.12501 17.2754 3.12501 17.1624V7.63114Z" fill="#D8DEE8"/>
</svg>
