<svg width="22" height="23" viewBox="0 0 22 23" fill="none" xmlns="http://www.w3.org/2000/svg">
<path d="M21.9891 11.706C21.9891 10.8047 21.9143 10.1469 21.7523 9.46484H11.2188V13.533H17.4017C17.2771 14.544 16.6039 16.0665 15.108 17.0896L15.0871 17.2258L18.4176 19.7468L18.6483 19.7693C20.7674 17.857 21.9891 15.0434 21.9891 11.706Z" fill="#4285F4"/>
<path d="M11.2188 22.424C14.2479 22.424 16.7909 21.4495 18.6483 19.7687L15.108 17.089C14.1607 17.7346 12.8891 18.1852 11.2188 18.1852C8.25193 18.1852 5.73388 16.273 4.83626 13.6299L4.70469 13.6408L1.24158 16.2596L1.19629 16.3826C3.0412 19.9635 6.83078 22.424 11.2188 22.424Z" fill="#34A853"/>
<path d="M4.83665 13.6306C4.5998 12.9485 4.46273 12.2176 4.46273 11.4625C4.46273 10.7072 4.5998 9.97646 4.82419 9.29437L4.81791 9.14911L1.31141 6.48828L1.19668 6.5416C0.436305 8.02761 0 9.69633 0 11.4625C0 13.2286 0.436305 14.8972 1.19668 16.3832L4.83665 13.6306Z" fill="#FBBC05"/>
<path d="M11.2188 4.73869C13.3254 4.73869 14.7465 5.62785 15.5568 6.37089L18.7231 3.35018C16.7785 1.58405 14.2479 0.5 11.2188 0.5C6.83078 0.5 3.0412 2.96039 1.19629 6.54135L4.8238 9.29412C5.73388 6.65101 8.25193 4.73869 11.2188 4.73869Z" fill="#EB4335"/>
</svg>
