<svg width="20" height="20" viewBox="0 0 20 20" fill="none" xmlns="http://www.w3.org/2000/svg">
<path d="M7.45808 15.4631C7.19256 15.4631 6.97731 15.6704 6.97731 15.9261C6.97731 16.1817 7.19256 16.389 7.45808 16.389H12.2658C12.5313 16.389 12.7465 16.1817 12.7465 15.9261C12.7465 15.6704 12.5313 15.4631 12.2658 15.4631H7.45808Z" fill="white"/>
<path fill-rule="evenodd" clip-rule="evenodd" d="M6.75195 15.9261C6.75195 15.5506 7.06809 15.2461 7.45808 15.2461H12.2658C12.6557 15.2461 12.9719 15.5506 12.9719 15.9261C12.9719 16.3016 12.6557 16.606 12.2658 16.606H7.45808C7.06809 16.606 6.75195 16.3016 6.75195 15.9261ZM6.97731 15.9261C6.97731 15.6704 7.19256 15.4631 7.45808 15.4631H12.2658C12.5313 15.4631 12.7465 15.6704 12.7465 15.9261C12.7465 16.1817 12.5313 16.389 12.2658 16.389H7.45808C7.19256 16.389 6.97731 16.1817 6.97731 15.9261Z" fill="white"/>
<path fill-rule="evenodd" clip-rule="evenodd" d="M11.9476 1.64364C10.7249 0.714126 8.99953 0.714126 7.77688 1.64364L1.52688 6.3951C0.718489 7.00968 0.246845 7.94688 0.246845 8.9387V16.3889C0.246845 18.1787 1.75357 19.6296 3.61223 19.6296H16.1122C17.9709 19.6296 19.4776 18.1787 19.4776 16.3889V8.9387C19.4776 7.94688 19.006 7.00968 18.1976 6.3951L11.9476 1.64364ZM8.3727 2.37038C9.24607 1.70644 10.4784 1.70644 11.3517 2.37038L17.6017 7.12185C18.1791 7.56083 18.5161 8.23026 18.5161 8.9387V16.3889C18.5161 17.6673 17.4398 18.7037 16.1122 18.7037H3.61223C2.28462 18.7037 1.20838 17.6673 1.20838 16.3889V8.9387C1.20838 8.23026 1.54527 7.56083 2.1227 7.12185L8.3727 2.37038Z" fill="white"/>
<path fill-rule="evenodd" clip-rule="evenodd" d="M12.0872 1.47331L18.3372 6.22477L18.1976 6.3951L11.9476 1.64364C10.7249 0.714126 8.99953 0.714126 7.77688 1.64364L1.52688 6.3951L1.38724 6.22477L7.63723 1.47331C8.94176 0.48155 10.7827 0.481553 12.0872 1.47331ZM1.52688 6.3951L1.38724 6.22477C0.524713 6.8805 0.0214844 7.88046 0.0214844 8.9387V16.3889C0.0214844 18.2985 1.62911 19.8466 3.61223 19.8466H16.1122C18.0953 19.8466 19.703 18.2985 19.703 16.3889V8.9387C19.703 7.88047 19.1997 6.8805 18.3372 6.22477L18.1976 6.3951C19.006 7.00968 19.4776 7.94688 19.4776 8.9387V16.3889C19.4776 18.1787 17.9709 19.6296 16.1122 19.6296H3.61223C1.75357 19.6296 0.246845 18.1787 0.246845 16.3889V8.9387C0.246845 7.94688 0.718489 7.00968 1.52688 6.3951ZM8.3727 2.37038L2.1227 7.12185C1.54527 7.56083 1.20838 8.23026 1.20838 8.9387V16.3889C1.20838 17.6673 2.28462 18.7037 3.61223 18.7037H16.1122C17.4398 18.7037 18.5161 17.6673 18.5161 16.3889V8.9387C18.5161 8.23026 18.1791 7.56083 17.6017 7.12185L11.3517 2.37038C10.4784 1.70644 9.24607 1.70644 8.3727 2.37038ZM2.26234 7.29218L8.51235 2.54072C9.30384 1.93901 10.4206 1.93901 11.2121 2.54072L17.4621 7.29218C17.9854 7.69 18.2907 8.29668 18.2907 8.9387V16.3889C18.2907 17.5475 17.3153 18.4867 16.1122 18.4867H3.61223C2.40909 18.4867 1.43374 17.5475 1.43374 16.3889V8.9387C1.43374 8.29668 1.73904 7.69 2.26234 7.29218Z" fill="white"/>
</svg>
