<svg width="116" height="45" viewBox="0 0 116 45" fill="none" xmlns="http://www.w3.org/2000/svg">
<g clip-path="url(#clip0_5522_20726)">
<path d="M16.3602 5.48633C15.5246 5.49376 14.6985 5.66358 13.9277 5.98633C15.662 6.86696 16.5516 8.82191 16.0111 11.0967L13.9412 19.8197H18.5674L20.6394 11.0967C21.3737 7.99759 19.4593 5.48633 16.3602 5.48633Z" fill="#159557"/>
<path d="M9.3963 5.48633C8.56075 5.49376 7.73461 5.66358 6.96387 5.98633C8.6981 6.86696 9.58774 8.82191 9.0472 11.0967L6.98189 19.8197H11.6035L13.6756 11.0967C14.4143 7.99759 12.4954 5.48633 9.3963 5.48633Z" fill="#159557"/>
<path d="M2.43243 5.48633C1.59688 5.49376 0.770739 5.66358 0 5.98633C1.73649 6.86696 2.62387 8.83318 2.08559 11.0967L0.0135135 19.8197H4.63964L6.71171 11.0967C7.44595 7.99759 5.53153 5.48633 2.43243 5.48633Z" fill="#159557"/>
<path d="M31.7187 12.9729C31.7187 11.6125 31.5491 10.629 31.2097 10.0224C30.8674 9.41658 30.2345 9.12154 29.3043 9.12154C28.9383 9.12371 28.5727 9.14854 28.2097 9.19586C27.8111 9.24541 27.5115 9.28595 27.3088 9.31974V19.8197H24.2998V7.22064C25.0494 7.02055 25.8096 6.86264 26.5768 6.74766C27.5604 6.59471 28.5544 6.5194 29.5498 6.52244C30.3011 6.49893 31.0501 6.61815 31.757 6.87379C32.2913 7.08065 32.7779 7.39407 33.1872 7.79496C33.4094 7.63717 33.6428 7.49566 33.8854 7.37154C34.1904 7.21152 34.5065 7.07377 34.8313 6.95938C35.1935 6.83152 35.5636 6.72769 35.9394 6.64857C36.3281 6.56566 36.7245 6.52414 37.1219 6.52469C37.9769 6.497 38.8285 6.64494 39.6241 6.95938C40.2396 7.21884 40.7729 7.64081 41.1669 8.1801C41.5588 8.74711 41.8225 9.39272 41.9394 10.072C42.0854 10.8729 42.1563 11.6858 42.1512 12.4999V19.8197H39.1376V12.9729C39.1376 11.6125 38.9717 10.629 38.6399 10.0224C38.3081 9.41583 37.6692 9.11553 36.7232 9.12154C36.2571 9.11522 35.7934 9.19147 35.3539 9.34676C35.0135 9.45765 34.6876 9.60887 34.3831 9.79721C34.5186 10.2267 34.6099 10.669 34.6557 11.117C34.7088 11.613 34.7343 12.1115 34.7322 12.6103V19.8175H31.7187V12.9729Z" fill="white"/>
<path d="M56.3065 13.2971C56.3179 14.2536 56.1655 15.205 55.856 16.1101C55.5841 16.9105 55.1519 17.647 54.5857 18.2746C54.0344 18.8759 53.3599 19.3514 52.6083 19.6687C51.8009 20.0081 50.9322 20.1776 50.0565 20.1665C49.1865 20.1778 48.3237 20.0083 47.5227 19.6687C46.7754 19.3495 46.105 18.8742 45.5565 18.2746C44.9899 17.6453 44.5543 16.9095 44.2749 16.1101C43.961 15.2061 43.8086 14.2539 43.8245 13.2971C43.8078 12.3439 43.9603 11.3952 44.2749 10.4953C44.5563 9.69775 44.996 8.96535 45.5677 8.34213C46.1223 7.74617 46.7971 7.27481 47.5475 6.95924C48.3449 6.63007 49.2006 6.46536 50.0632 6.47501C50.9294 6.46648 51.7886 6.63112 52.5902 6.95924C53.3422 7.27081 54.0171 7.74275 54.5677 8.34213C55.1327 8.96874 55.5689 9.70034 55.8515 10.4953C56.1667 11.3952 56.3207 12.3437 56.3065 13.2971ZM53.2186 13.2971C53.2186 12.0028 52.9408 10.9773 52.3853 10.2205C52.1081 9.86822 51.7546 9.58344 51.3514 9.38762C50.9482 9.1918 50.5058 9.09006 50.0576 9.09006C49.6094 9.09006 49.167 9.1918 48.7637 9.38762C48.3605 9.58344 48.007 9.86822 47.7299 10.2205C47.1728 10.9713 46.8951 11.9968 46.8966 13.2971C46.8981 14.5974 47.1818 15.6342 47.7479 16.4074C48.0212 16.7655 48.3733 17.0558 48.7771 17.2556C49.1808 17.4553 49.6252 17.5593 50.0756 17.5593C50.5261 17.5593 50.9704 17.4553 51.3742 17.2556C51.7779 17.0558 52.1301 16.7655 52.4033 16.4074C52.9529 15.6432 53.2276 14.6064 53.2276 13.2971H53.2186Z" fill="white"/>
<path d="M65.5517 9.50889C65.2118 9.40438 64.8667 9.31718 64.5179 9.24762C64.0132 9.15157 63.5002 9.1063 62.9864 9.11249C62.6321 9.11381 62.2785 9.14698 61.9301 9.21159C61.6647 9.25269 61.4022 9.31062 61.1441 9.38501V19.8197H58.1328V7.43231C58.8436 7.17411 59.5713 6.96491 60.3107 6.80618C61.2646 6.60676 62.2372 6.51086 63.2116 6.52015C63.4098 6.52015 63.6418 6.53366 63.9076 6.55843C64.1734 6.58321 64.4391 6.61474 64.7049 6.65753C64.9707 6.70033 65.2274 6.74762 65.4774 6.80618C65.7274 6.86474 65.9279 6.91879 66.0743 6.96834L65.5517 9.50889Z" fill="white"/>
<path d="M66.1487 13.371C66.1306 12.3429 66.3063 11.3205 66.6668 10.3575C66.9672 9.55588 67.4269 8.82343 68.0181 8.20434C68.5677 7.64181 69.2291 7.20065 69.9595 6.90929C70.672 6.62275 71.4326 6.4752 72.2005 6.47461C73.9933 6.47461 75.392 7.03016 76.3965 8.14128C77.401 9.25239 77.9017 10.9093 77.8987 13.112C77.8987 13.2787 77.8987 13.4656 77.8875 13.6728C77.8762 13.88 77.8672 14.067 77.8492 14.2336H69.2613C69.3454 15.2847 69.7148 16.0932 70.3695 16.6593C71.0241 17.2254 71.9738 17.5121 73.2186 17.5197C73.892 17.5252 74.564 17.458 75.2231 17.3192C75.7125 17.2222 76.192 17.0805 76.6555 16.8958L77.0541 19.3733C76.8356 19.4768 76.6098 19.5641 76.3785 19.6345C76.0511 19.734 75.7188 19.8167 75.383 19.8823C75.0091 19.9558 74.6059 20.0182 74.1735 20.0692C73.7361 20.1192 73.2962 20.144 72.8559 20.1435C71.8339 20.1702 70.8163 20.0004 69.8582 19.6435C69.0617 19.3375 68.3465 18.852 67.7681 18.2246C67.2123 17.6065 66.796 16.876 66.5474 16.0827C66.2726 15.2054 66.138 14.2903 66.1487 13.371ZM74.8875 12.0197C74.8891 11.6191 74.8307 11.2205 74.714 10.8372C74.6076 10.4838 74.434 10.1542 74.2028 9.8665C73.98 9.59222 73.6993 9.37069 73.3807 9.21785C73.0179 9.05173 72.6219 8.97084 72.2231 8.98137C71.8021 8.97235 71.3849 9.06182 71.0046 9.24263C70.6675 9.40662 70.3665 9.63635 70.1195 9.9183C69.876 10.2058 69.6861 10.5345 69.5586 10.889C69.4266 11.2532 69.3352 11.6309 69.2861 12.0152L74.8875 12.0197Z" fill="white"/>
<path d="M90.5407 18.4997C90.5407 20.5732 90.0151 22.092 88.9641 23.056C87.913 24.0199 86.2989 24.5012 84.1217 24.4997C83.3411 24.5007 82.5619 24.4336 81.7929 24.2992C81.0952 24.1812 80.4082 24.0065 79.7389 23.7767L80.2907 21.2204C80.8572 21.4509 81.4448 21.6259 82.0452 21.7429C82.7463 21.8798 83.4593 21.9461 84.1736 21.9411C85.3853 21.9411 86.2486 21.6926 86.7636 21.1956C87.2787 20.6986 87.5354 19.9561 87.5339 18.9681V18.4749C87.1522 18.6559 86.7569 18.8065 86.3515 18.9253C85.8055 19.0826 85.2394 19.1585 84.6713 19.1506C83.8936 19.1573 83.1214 19.019 82.3943 18.7429C81.7265 18.4921 81.1238 18.0941 80.6308 17.5785C80.1165 17.0234 79.7257 16.3655 79.4844 15.6483C79.1973 14.7861 79.0587 13.8813 79.0745 12.9726C79.0633 12.0825 79.2089 11.1974 79.5046 10.3578C79.7752 9.5936 80.2086 8.89735 80.7749 8.31724C81.3501 7.73951 82.0409 7.28976 82.8019 6.99742C83.6685 6.66957 84.5895 6.50908 85.5159 6.52445C86.45 6.52155 87.3827 6.59689 88.3042 6.74967C89.1826 6.89982 89.9296 7.05748 90.5452 7.22264L90.5407 18.4997ZM82.1578 12.9726C82.1578 14.2489 82.4356 15.1821 82.9911 15.7722C83.2655 16.0631 83.5985 16.2925 83.9681 16.445C84.3378 16.5976 84.7356 16.67 85.1353 16.6573C85.5933 16.6596 86.049 16.592 86.4866 16.4569C86.852 16.3513 87.1997 16.1919 87.5181 15.9839V9.23841C87.2929 9.18886 87.0362 9.14381 86.7208 9.10102C86.3247 9.05515 85.926 9.03409 85.5271 9.03796C84.4326 9.03796 83.5925 9.40057 83.0136 10.1213C82.4348 10.842 82.1578 11.7947 82.1578 12.9726Z" fill="white"/>
<path d="M96.4462 2.98844C96.4591 3.23998 96.4168 3.49131 96.3223 3.72477C96.2277 3.95823 96.0832 4.16815 95.8989 4.33979C95.5447 4.66703 95.0769 4.84319 94.5948 4.83078C94.1102 4.838 93.6416 4.65811 93.2863 4.32853C93.1011 4.15738 92.9559 3.9476 92.861 3.71406C92.766 3.48052 92.7236 3.22895 92.7367 2.97718C92.726 2.72569 92.7696 2.47485 92.8644 2.24168C92.9592 2.00851 93.1031 1.79847 93.2863 1.62583C93.6418 1.29643 94.1101 1.11587 94.5948 1.12132C95.0785 1.11376 95.5462 1.29469 95.8989 1.62583C96.0829 1.80011 96.227 2.01211 96.3215 2.24729C96.416 2.48247 96.4585 2.73529 96.4462 2.98844ZM96.1241 19.8195H93.1106V6.80601H96.1241V19.8195Z" fill="white"/>
<path d="M103.964 0.499695C104.583 0.49174 105.201 0.554458 105.806 0.686632C106.211 0.774719 106.611 0.886778 107.002 1.02222L106.43 3.4997C106.114 3.35788 105.784 3.24992 105.446 3.17762C105.049 3.09222 104.644 3.05068 104.239 3.05375C103.822 3.04218 103.407 3.11337 103.018 3.26321C102.708 3.38922 102.435 3.5905 102.223 3.84879C102.013 4.12223 101.869 4.44059 101.802 4.77897C101.716 5.15884 101.675 5.54728 101.678 5.93663V6.806H107.759V9.31276H101.678V19.8195H98.6621V5.87807C98.6621 4.2009 99.1021 2.88558 99.9819 1.93213C100.862 0.978674 102.189 0.501197 103.964 0.499695Z" fill="white"/>
<path d="M107.176 3.36201L110.189 2.86426V6.8057H114.82V9.31246H110.189V14.6143C110.189 15.6653 110.355 16.4161 110.687 16.8665C111.019 17.317 111.583 17.5422 112.381 17.5422C112.871 17.5492 113.361 17.4901 113.835 17.3665C114.177 17.2775 114.514 17.1699 114.845 17.0444L115.342 19.4183C114.896 19.5968 114.438 19.7472 113.973 19.8688C113.322 20.0332 112.653 20.1089 111.982 20.094C111.189 20.1175 110.399 19.9907 109.653 19.7201C109.07 19.5012 108.558 19.1274 108.171 18.639C107.793 18.1362 107.53 17.5565 107.401 16.9408C107.242 16.1834 107.166 15.4107 107.176 14.6368V3.36201Z" fill="white"/>
</g>
<path d="M1.14844 41.5V32.9336H2.34961V40.457H6.07031V41.5H1.14844ZM8.33813 35.043V41.5H7.16039V35.043H8.33813ZM7.75805 32.5996C7.94555 32.5996 8.1057 32.6543 8.23852 32.7637C8.37523 32.873 8.44359 33.0508 8.44359 33.2969C8.44359 33.543 8.37523 33.7227 8.23852 33.8359C8.1057 33.9453 7.94555 34 7.75805 34C7.56664 34 7.40453 33.9453 7.27172 33.8359C7.14281 33.7227 7.07836 33.543 7.07836 33.2969C7.07836 33.0508 7.14281 32.873 7.27172 32.7637C7.40453 32.6543 7.56664 32.5996 7.75805 32.5996ZM13.1606 35.9512H11.5727V41.5H10.395V35.9512H9.2993V35.3828L10.395 35.0254V34.5801C10.395 34.0371 10.479 33.6016 10.647 33.2734C10.8149 32.9414 11.0552 32.6992 11.3677 32.5469C11.6841 32.3945 12.0669 32.3184 12.5161 32.3184C12.7856 32.3184 13.0317 32.3418 13.2544 32.3887C13.4809 32.4355 13.6763 32.4883 13.8403 32.5469L13.5356 33.4492C13.4028 33.4062 13.2544 33.3672 13.0903 33.332C12.9263 33.293 12.7524 33.2734 12.5688 33.2734C12.229 33.2734 11.977 33.3828 11.813 33.6016C11.6528 33.8203 11.5727 34.1504 11.5727 34.5918V35.043H13.1606V35.9512ZM16.5945 34.9258C17.157 34.9258 17.6394 35.0469 18.0417 35.2891C18.4441 35.5273 18.7527 35.8652 18.9675 36.3027C19.1823 36.7402 19.2898 37.2559 19.2898 37.8496V38.5176H14.907C14.9187 39.209 15.0964 39.7402 15.4402 40.1113C15.7839 40.4785 16.2663 40.6621 16.8874 40.6621C17.2976 40.6621 17.6628 40.623 17.9831 40.5449C18.3034 40.4668 18.6355 40.3516 18.9792 40.1992V41.1895C18.655 41.3379 18.3288 41.4453 18.0007 41.5117C17.6765 41.582 17.2878 41.6172 16.8347 41.6172C16.2097 41.6172 15.6609 41.4922 15.1882 41.2422C14.7195 40.9922 14.3542 40.623 14.0925 40.1348C13.8308 39.6426 13.6999 39.0371 13.6999 38.3184C13.6999 37.6074 13.8191 37 14.0573 36.4961C14.2956 35.9883 14.6316 35.5996 15.0652 35.3301C15.4987 35.0605 16.0085 34.9258 16.5945 34.9258ZM16.5886 35.8398C16.112 35.8398 15.7292 35.9961 15.4402 36.3086C15.1511 36.6172 14.9812 37.0605 14.9304 37.6387H18.1062C18.1023 37.2832 18.0456 36.9707 17.9362 36.7012C17.8269 36.4316 17.6609 36.2207 17.4382 36.0684C17.2195 35.916 16.9362 35.8398 16.5886 35.8398ZM24.7102 35.043V41.5H23.5324V35.043H24.7102ZM24.1301 32.5996C24.3176 32.5996 24.4777 32.6543 24.6105 32.7637C24.7473 32.873 24.8156 33.0508 24.8156 33.2969C24.8156 33.543 24.7473 33.7227 24.6105 33.8359C24.4777 33.9453 24.3176 34 24.1301 34C23.9387 34 23.7766 33.9453 23.6437 33.8359C23.5148 33.7227 23.4504 33.543 23.4504 33.2969C23.4504 33.0508 23.5148 32.873 23.6437 32.7637C23.7766 32.6543 23.9387 32.5996 24.1301 32.5996ZM30.7397 39.6953C30.7397 40.1133 30.6362 40.4668 30.4291 40.7559C30.226 41.041 29.9291 41.2559 29.5385 41.4004C29.1479 41.5449 28.6791 41.6172 28.1323 41.6172C27.6791 41.6172 27.2885 41.582 26.9604 41.5117C26.6323 41.4453 26.3354 41.3477 26.0698 41.2188V40.1758C26.3549 40.3125 26.685 40.4336 27.06 40.5391C27.435 40.6445 27.8022 40.6973 28.1616 40.6973C28.6655 40.6973 29.0287 40.6172 29.2514 40.457C29.478 40.2969 29.5912 40.0801 29.5912 39.8066C29.5912 39.6465 29.5463 39.5059 29.4565 39.3848C29.3666 39.2598 29.2084 39.1367 28.9819 39.0156C28.7592 38.8906 28.4389 38.748 28.0209 38.5879C27.6108 38.4277 27.2592 38.2676 26.9662 38.1074C26.6772 37.9473 26.4565 37.7539 26.3041 37.5273C26.1518 37.3008 26.0756 37.0078 26.0756 36.6484C26.0756 36.0898 26.2983 35.6641 26.7436 35.3711C27.1928 35.0742 27.7846 34.9258 28.519 34.9258C28.9096 34.9258 29.2768 34.9648 29.6205 35.043C29.9682 35.1211 30.3002 35.2305 30.6166 35.3711L30.2358 36.2793C29.9545 36.1582 29.6655 36.0586 29.3686 35.9805C29.0717 35.8984 28.769 35.8574 28.4604 35.8574C28.058 35.8574 27.7495 35.9219 27.5346 36.0508C27.3237 36.1797 27.2182 36.3574 27.2182 36.584C27.2182 36.7598 27.267 36.9062 27.3647 37.0234C27.4662 37.1406 27.6342 37.2559 27.8686 37.3691C28.103 37.4785 28.4194 37.6094 28.8178 37.7617C29.2123 37.9102 29.5522 38.0645 29.8373 38.2246C30.1264 38.3848 30.3491 38.5801 30.5053 38.8105C30.6616 39.041 30.7397 39.3359 30.7397 39.6953ZM37.3788 34.9316C38.1757 34.9316 38.7714 35.1094 39.1659 35.4648C39.5605 35.8164 39.7577 36.373 39.7577 37.1348V41.5H38.914L38.6855 40.5625H38.6386C38.4589 40.7969 38.2714 40.9922 38.0761 41.1484C37.8808 41.3047 37.6542 41.4219 37.3964 41.5C37.1425 41.5781 36.832 41.6172 36.4648 41.6172C36.0741 41.6172 35.7265 41.5469 35.4218 41.4062C35.1171 41.2656 34.8769 41.0547 34.7011 40.7734C34.5292 40.4883 34.4433 40.127 34.4433 39.6895C34.4433 39.0332 34.6952 38.5352 35.1991 38.1953C35.703 37.8555 36.4667 37.6699 37.4902 37.6387L38.6034 37.5918V37.2285C38.6034 36.7246 38.4902 36.3691 38.2636 36.1621C38.0409 35.9551 37.7284 35.8516 37.3261 35.8516C36.9941 35.8516 36.6757 35.9004 36.371 35.998C36.0663 36.0918 35.7734 36.2051 35.4921 36.3379L35.1171 35.4824C35.4218 35.3262 35.7675 35.1953 36.1542 35.0898C36.5448 34.9844 36.953 34.9316 37.3788 34.9316ZM38.5917 38.3652L37.6894 38.4062C36.9433 38.4336 36.4179 38.5586 36.1132 38.7812C35.8124 39 35.662 39.3066 35.662 39.7012C35.662 40.0449 35.7655 40.2969 35.9726 40.457C36.1796 40.6172 36.453 40.6973 36.7929 40.6973C37.3163 40.6973 37.746 40.5508 38.082 40.2578C38.4218 39.9609 38.5917 39.5234 38.5917 38.9453V38.3652ZM46.1918 44.3828C45.3285 44.3828 44.6645 44.2246 44.1996 43.9082C43.7387 43.5918 43.5082 43.1504 43.5082 42.584C43.5082 42.1816 43.6352 41.8398 43.8891 41.5586C44.143 41.2812 44.4984 41.0938 44.9555 40.9961C44.7836 40.918 44.6352 40.7988 44.5102 40.6387C44.3891 40.4746 44.3285 40.291 44.3285 40.0879C44.3285 39.8496 44.3949 39.6445 44.5277 39.4727C44.6645 39.2969 44.8676 39.127 45.1371 38.9629C44.7973 38.8223 44.5238 38.5898 44.3168 38.2656C44.1098 37.9375 44.0062 37.5547 44.0062 37.1172C44.0062 36.6523 44.1039 36.2559 44.2992 35.9277C44.4984 35.5996 44.7836 35.3496 45.1547 35.1777C45.5258 35.0059 45.977 34.9199 46.5082 34.9199C46.6254 34.9199 46.7465 34.9258 46.8715 34.9375C46.9965 34.9453 47.1156 34.959 47.2289 34.9785C47.3422 34.998 47.434 35.0176 47.5043 35.0371H49.7309V35.7344L48.5824 35.9102C48.6957 36.0586 48.7875 36.2344 48.8578 36.4375C48.9281 36.6406 48.9633 36.8633 48.9633 37.1055C48.9633 37.7617 48.7387 38.2812 48.2895 38.6641C47.8441 39.043 47.227 39.2324 46.4379 39.2324C46.2543 39.2285 46.0687 39.2129 45.8812 39.1855C45.7133 39.2832 45.5863 39.3906 45.5004 39.5078C45.4145 39.6211 45.3715 39.752 45.3715 39.9004C45.3715 40.0137 45.4086 40.1055 45.4828 40.1758C45.5609 40.2461 45.6723 40.2988 45.8168 40.334C45.9613 40.3652 46.1371 40.3809 46.3441 40.3809H47.4691C48.1723 40.3809 48.7113 40.5293 49.0863 40.8262C49.4613 41.123 49.6488 41.5566 49.6488 42.127C49.6488 42.8496 49.352 43.4062 48.7582 43.7969C48.1645 44.1875 47.309 44.3828 46.1918 44.3828ZM46.2328 43.5215C46.7367 43.5215 47.1566 43.4707 47.4926 43.3691C47.8324 43.2676 48.0883 43.123 48.2602 42.9355C48.432 42.748 48.518 42.5254 48.518 42.2676C48.518 42.0332 48.4613 41.8535 48.348 41.7285C48.2387 41.6074 48.0746 41.5254 47.8559 41.4824C47.6371 41.4395 47.3676 41.418 47.0473 41.418H45.9809C45.7074 41.418 45.4691 41.4609 45.266 41.5469C45.0629 41.6328 44.9047 41.7559 44.7914 41.916C44.6781 42.0801 44.6215 42.2812 44.6215 42.5195C44.6215 42.8438 44.7602 43.0918 45.0375 43.2637C45.3187 43.4355 45.7172 43.5215 46.2328 43.5215ZM46.4906 38.4297C46.9242 38.4297 47.2484 38.3164 47.4633 38.0898C47.6781 37.8594 47.7855 37.5312 47.7855 37.1055C47.7855 36.6484 47.6762 36.3047 47.4574 36.0742C47.2387 35.8438 46.9145 35.7285 46.4848 35.7285C46.0668 35.7285 45.7465 35.8477 45.5238 36.0859C45.3051 36.3203 45.1957 36.6641 45.1957 37.1172C45.1957 37.5352 45.307 37.8594 45.5297 38.0898C45.7523 38.3164 46.0727 38.4297 46.4906 38.4297ZM51.8873 35.043V41.5H50.7096V35.043H51.8873ZM51.3073 32.5996C51.4948 32.5996 51.6549 32.6543 51.7877 32.7637C51.9245 32.873 51.9928 33.0508 51.9928 33.2969C51.9928 33.543 51.9245 33.7227 51.7877 33.8359C51.6549 33.9453 51.4948 34 51.3073 34C51.1159 34 50.9538 33.9453 50.8209 33.8359C50.692 33.7227 50.6276 33.543 50.6276 33.2969C50.6276 33.0508 50.692 32.873 50.8209 32.7637C50.9538 32.6543 51.1159 32.5996 51.3073 32.5996ZM56.7098 35.9512H55.122V41.5H53.9442V35.9512H52.8485V35.3828L53.9442 35.0254V34.5801C53.9442 34.0371 54.0282 33.6016 54.1962 33.2734C54.3641 32.9414 54.6044 32.6992 54.9169 32.5469C55.2333 32.3945 55.6161 32.3184 56.0653 32.3184C56.3348 32.3184 56.5809 32.3418 56.8036 32.3887C57.0302 32.4355 57.2255 32.4883 57.3895 32.5469L57.0848 33.4492C56.952 33.4062 56.8036 33.3672 56.6395 33.332C56.4755 33.293 56.3016 33.2734 56.118 33.2734C55.7782 33.2734 55.5262 33.3828 55.3622 33.6016C55.202 33.8203 55.122 34.1504 55.122 34.5918V35.043H56.7098V35.9512ZM59.8624 40.6621C60.0304 40.6621 60.2003 40.6484 60.3722 40.6211C60.5441 40.5898 60.6925 40.5508 60.8175 40.5039V41.4062C60.6847 41.4648 60.507 41.5137 60.2843 41.5527C60.0655 41.5957 59.8409 41.6172 59.6105 41.6172C59.2589 41.6172 58.9405 41.5566 58.6554 41.4355C58.3702 41.3145 58.1417 41.1074 57.9698 40.8145C57.8019 40.5215 57.7179 40.1152 57.7179 39.5957V35.9512H56.8214V35.4062L57.7589 34.9727L58.1749 33.5781H58.9015V35.043H60.7706V35.9512H58.9015V39.5781C58.9015 39.9414 58.9874 40.2129 59.1593 40.3926C59.3351 40.5723 59.5695 40.6621 59.8624 40.6621Z" fill="#8A929C"/>
<defs>
<clipPath id="clip0_5522_20726">
<rect width="115.342" height="24" fill="white" transform="translate(0 0.5)"/>
</clipPath>
</defs>
</svg>
