<svg width="116" height="24" viewBox="0 0 116 24" fill="none" xmlns="http://www.w3.org/2000/svg">
<g clip-path="url(#clip0_1569_47831)">
<path d="M16.6893 4.98633C15.8537 4.99376 15.0276 5.16358 14.2568 5.48633C15.9911 6.36696 16.8807 8.32191 16.3402 10.5967L14.2703 19.3197H18.8965L20.9685 10.5967C21.7028 7.49759 19.7884 4.98633 16.6893 4.98633Z" fill="#159557"/>
<path d="M9.7254 4.98633C8.88985 4.99376 8.06371 5.16358 7.29297 5.48633C9.0272 6.36696 9.91684 8.32191 9.3763 10.5967L7.31099 19.3197H11.9326L14.0047 10.5967C14.7434 7.49759 12.8245 4.98633 9.7254 4.98633Z" fill="#159557"/>
<path d="M2.76153 4.98633C1.92598 4.99376 1.09984 5.16358 0.329102 5.48633C2.06559 6.36696 2.95298 8.33318 2.41469 10.5967L0.342615 19.3197H4.96874L7.04081 10.5967C7.77505 7.49759 5.86063 4.98633 2.76153 4.98633Z" fill="#159557"/>
<path d="M32.0478 12.4729C32.0478 11.1125 31.8782 10.129 31.5388 9.52244C31.1965 8.91658 30.5636 8.62154 29.6334 8.62154C29.2674 8.62371 28.9018 8.64854 28.5388 8.69586C28.1402 8.74541 27.8406 8.78595 27.6379 8.81974V19.3197H24.6289V6.72064C25.3785 6.52055 26.1387 6.36264 26.9059 6.24766C27.8895 6.09471 28.8835 6.0194 29.8789 6.02244C30.6302 5.99893 31.3792 6.11815 32.0861 6.37379C32.6204 6.58065 33.107 6.89407 33.5163 7.29496C33.7385 7.13717 33.9719 6.99566 34.2145 6.87154C34.5195 6.71152 34.8356 6.57377 35.1604 6.45938C35.5226 6.33152 35.8927 6.22769 36.2685 6.14857C36.6572 6.06566 37.0536 6.02414 37.451 6.02469C38.306 5.997 39.1576 6.14494 39.9532 6.45938C40.5687 6.71884 41.102 7.14081 41.496 7.6801C41.8879 8.24711 42.1516 8.89272 42.2685 9.57199C42.4145 10.3729 42.4854 11.1858 42.4803 11.9999V19.3197H39.4667V12.4729C39.4667 11.1125 39.3008 10.129 38.969 9.52244C38.6372 8.91583 37.9983 8.61553 37.0523 8.62154C36.5862 8.61522 36.1226 8.69147 35.683 8.84676C35.3426 8.95765 35.0167 9.10887 34.7122 9.29721C34.8477 9.72674 34.939 10.169 34.9848 10.617C35.0379 11.113 35.0634 11.6115 35.0613 12.1103V19.3175H32.0478V12.4729Z" fill="#1D1D1B"/>
<path d="M56.6356 12.7971C56.647 13.7536 56.4946 14.705 56.1851 15.6101C55.9132 16.4105 55.481 17.147 54.9148 17.7746C54.3635 18.3759 53.689 18.8514 52.9374 19.1687C52.13 19.5081 51.2613 19.6776 50.3856 19.6665C49.5156 19.6778 48.6528 19.5083 47.8518 19.1687C47.1045 18.8495 46.4341 18.3742 45.8856 17.7746C45.319 17.1453 44.8834 16.4095 44.604 15.6101C44.2901 14.7061 44.1377 13.7539 44.1536 12.7971C44.1369 11.8439 44.2894 10.8952 44.604 9.99528C44.8854 9.19775 45.3252 8.46535 45.8968 7.84213C46.4514 7.24617 47.1262 6.77481 47.8766 6.45924C48.674 6.13007 49.5297 5.96536 50.3923 5.97501C51.2585 5.96648 52.1177 6.13112 52.9193 6.45924C53.6713 6.77081 54.3462 7.24275 54.8968 7.84213C55.4618 8.46874 55.898 9.20034 56.1806 9.99528C56.4958 10.8952 56.6498 11.8437 56.6356 12.7971ZM53.5477 12.7971C53.5477 11.5028 53.2699 10.4773 52.7144 9.72051C52.4372 9.36822 52.0837 9.08344 51.6805 8.88762C51.2773 8.6918 50.8349 8.59006 50.3867 8.59006C49.9385 8.59006 49.4961 8.6918 49.0929 8.88762C48.6896 9.08344 48.3361 9.36822 48.059 9.72051C47.5019 10.4713 47.2242 11.4968 47.2257 12.7971C47.2272 14.0974 47.5109 15.1342 48.077 15.9074C48.3503 16.2655 48.7024 16.5558 49.1062 16.7556C49.5099 16.9553 49.9543 17.0593 50.4047 17.0593C50.8552 17.0593 51.2995 16.9553 51.7033 16.7556C52.107 16.5558 52.4592 16.2655 52.7324 15.9074C53.282 15.1432 53.5567 14.1064 53.5567 12.7971H53.5477Z" fill="#1D1D1B"/>
<path d="M65.8808 9.00889C65.5409 8.90438 65.1958 8.81718 64.8471 8.74762C64.3423 8.65157 63.8293 8.6063 63.3155 8.61249C62.9612 8.61381 62.6076 8.64698 62.2592 8.71159C61.9938 8.75269 61.7313 8.81062 61.4732 8.88501V19.3197H58.4619V6.93231C59.1727 6.67411 59.9004 6.46491 60.6398 6.30618C61.5937 6.10676 62.5663 6.01086 63.5407 6.02015C63.7389 6.02015 63.9709 6.03366 64.2367 6.05843C64.5025 6.08321 64.7682 6.11474 65.034 6.15753C65.2998 6.20033 65.5565 6.24762 65.8065 6.30618C66.0565 6.36474 66.257 6.41879 66.4034 6.46834L65.8808 9.00889Z" fill="#1D1D1B"/>
<path d="M66.4778 12.871C66.4597 11.8429 66.6354 10.8205 66.9959 9.85749C67.2963 9.05588 67.756 8.32343 68.3472 7.70434C68.8968 7.14181 69.5582 6.70065 70.2886 6.40929C71.0011 6.12275 71.7618 5.9752 72.5296 5.97461C74.3224 5.97461 75.7211 6.53016 76.7256 7.64128C77.7301 8.75239 78.2308 10.4093 78.2278 12.612C78.2278 12.7787 78.2278 12.9656 78.2166 13.1728C78.2053 13.38 78.1963 13.567 78.1783 13.7336H69.5904C69.6745 14.7847 70.0439 15.5932 70.6986 16.1593C71.3532 16.7254 72.3029 17.0121 73.5477 17.0197C74.2211 17.0252 74.8932 16.958 75.5522 16.8192C76.0416 16.7222 76.5211 16.5805 76.9846 16.3958L77.3832 18.8733C77.1647 18.9768 76.9389 19.0641 76.7076 19.1345C76.3802 19.234 76.0479 19.3167 75.7121 19.3823C75.3382 19.4558 74.935 19.5182 74.5026 19.5692C74.0652 19.6192 73.6253 19.644 73.185 19.6435C72.163 19.6702 71.1454 19.5004 70.1873 19.1435C69.3908 18.8375 68.6756 18.352 68.0972 17.7246C67.5414 17.1065 67.1251 16.376 66.8765 15.5827C66.6017 14.7054 66.4671 13.7903 66.4778 12.871ZM75.2166 11.5197C75.2182 11.1191 75.1598 10.7205 75.0432 10.3372C74.9367 9.9838 74.7631 9.65421 74.5319 9.3665C74.3091 9.09222 74.0284 8.87069 73.7098 8.71785C73.347 8.55173 72.951 8.47084 72.5522 8.48137C72.1312 8.47235 71.714 8.56182 71.3337 8.74263C70.9966 8.90662 70.6956 9.13635 70.4486 9.4183C70.2051 9.70578 70.0152 10.0345 69.8877 10.389C69.7557 10.7532 69.6643 11.1309 69.6152 11.5152L75.2166 11.5197Z" fill="#1D1D1B"/>
<path d="M90.8698 17.9997C90.8698 20.0732 90.3442 21.592 89.2932 22.556C88.2421 23.5199 86.628 24.0012 84.4509 23.9997C83.6702 24.0007 82.891 23.9336 82.122 23.7992C81.4243 23.6812 80.7373 23.5065 80.068 23.2767L80.6198 20.7204C81.1863 20.9509 81.7739 21.1259 82.3743 21.2429C83.0754 21.3798 83.7884 21.4461 84.5027 21.4411C85.7144 21.4411 86.5777 21.1926 87.0927 20.6956C87.6078 20.1986 87.8645 19.4561 87.863 18.4681V17.9749C87.4813 18.1559 87.086 18.3065 86.6806 18.4253C86.1346 18.5826 85.5685 18.6585 85.0004 18.6506C84.2227 18.6573 83.4505 18.519 82.7234 18.2429C82.0556 17.9921 81.4529 17.5941 80.9599 17.0785C80.4456 16.5234 80.0548 15.8655 79.8135 15.1483C79.5264 14.2861 79.3878 13.3813 79.4036 12.4726C79.3924 11.5825 79.538 10.6974 79.8337 9.85778C80.1043 9.0936 80.5377 8.39735 81.104 7.81724C81.6792 7.23951 82.37 6.78976 83.131 6.49742C83.9976 6.16957 84.9186 6.00908 85.845 6.02445C86.7791 6.02155 87.7118 6.09689 88.6333 6.24967C89.5117 6.39982 90.2587 6.55748 90.8743 6.72264L90.8698 17.9997ZM82.4869 12.4726C82.4869 13.7489 82.7647 14.6821 83.3202 15.2722C83.5946 15.5631 83.9276 15.7925 84.2972 15.945C84.6669 16.0976 85.0647 16.17 85.4644 16.1573C85.9224 16.1596 86.3781 16.092 86.8157 15.9569C87.1811 15.8513 87.5288 15.6919 87.8472 15.4839V8.73841C87.622 8.68886 87.3653 8.64381 87.05 8.60102C86.6538 8.55515 86.2551 8.53409 85.8563 8.53796C84.7617 8.53796 83.9216 8.90057 83.3427 9.62129C82.7639 10.342 82.4869 11.2947 82.4869 12.4726Z" fill="#1D1D1B"/>
<path d="M96.7753 2.48844C96.7882 2.73998 96.7459 2.99131 96.6514 3.22477C96.5568 3.45823 96.4123 3.66815 96.228 3.83979C95.8738 4.16703 95.406 4.34319 94.9239 4.33078C94.4393 4.338 93.9707 4.15811 93.6154 3.82853C93.4302 3.65738 93.285 3.4476 93.1901 3.21406C93.0951 2.98052 93.0527 2.72895 93.0658 2.47718C93.0551 2.22569 93.0987 1.97485 93.1935 1.74168C93.2883 1.50851 93.4322 1.29847 93.6154 1.12583C93.9709 0.796426 94.4392 0.615869 94.9239 0.621321C95.4076 0.613761 95.8753 0.794692 96.228 1.12583C96.412 1.30011 96.5561 1.51211 96.6506 1.74729C96.7451 1.98247 96.7876 2.23529 96.7753 2.48844ZM96.4532 19.3195H93.4397V6.30601H96.4532V19.3195Z" fill="#1D1D1B"/>
<path d="M104.293 -0.000304753C104.912 -0.00825992 105.53 0.0544579 106.135 0.186632C106.54 0.274719 106.94 0.386778 107.331 0.522218L106.759 2.9997C106.443 2.85788 106.114 2.74992 105.775 2.67762C105.378 2.59222 104.974 2.55068 104.568 2.55375C104.151 2.54218 103.736 2.61337 103.347 2.76321C103.037 2.88922 102.764 3.0905 102.552 3.34879C102.342 3.62223 102.198 3.94059 102.131 4.27897C102.045 4.65884 102.004 5.04728 102.007 5.43663V6.306H108.088V8.81276H102.007V19.3195H98.9912V5.37807C98.9912 3.7009 99.4312 2.38558 100.311 1.43213C101.191 0.478674 102.518 0.00119675 104.293 -0.000304753Z" fill="#1D1D1B"/>
<path d="M107.505 2.86201L110.518 2.36426V6.3057H115.149V8.81246H110.518V14.1143C110.518 15.1653 110.684 15.9161 111.016 16.3665C111.348 16.817 111.912 17.0422 112.71 17.0422C113.2 17.0492 113.69 16.9901 114.165 16.8665C114.507 16.7775 114.843 16.6699 115.174 16.5444L115.671 18.9183C115.225 19.0968 114.767 19.2472 114.302 19.3688C113.651 19.5332 112.982 19.6089 112.311 19.594C111.518 19.6175 110.728 19.4907 109.982 19.2201C109.399 19.0012 108.887 18.6274 108.5 18.139C108.122 17.6362 107.859 17.0565 107.73 16.4408C107.571 15.6834 107.495 14.9107 107.505 14.1368V2.86201Z" fill="#1D1D1B"/>
</g>
<defs>
<clipPath id="clip0_1569_47831">
<rect width="115.342" height="24" fill="white" transform="translate(0.329102)"/>
</clipPath>
</defs>
</svg>
