<svg width="20" height="20" viewBox="0 0 20 20" fill="none" xmlns="http://www.w3.org/2000/svg">
<path d="M18.3332 10.625H6.6665C6.50074 10.625 6.34177 10.5592 6.22456 10.4419C6.10735 10.3247 6.0415 10.1658 6.0415 10C6.0415 9.83424 6.10735 9.67527 6.22456 9.55806C6.34177 9.44085 6.50074 9.375 6.6665 9.375H18.3332C18.4989 9.375 18.6579 9.44085 18.7751 9.55806C18.8923 9.67527 18.9582 9.83424 18.9582 10C18.9582 10.1658 18.8923 10.3247 18.7751 10.4419C18.6579 10.5592 18.4989 10.625 18.3332 10.625Z" fill="#5C6271"/>
<path d="M14.9998 13.9584C14.8762 13.9584 14.7553 13.9218 14.6525 13.8532C14.5497 13.7846 14.4696 13.687 14.4222 13.5729C14.3749 13.4587 14.3624 13.3331 14.3865 13.2118C14.4105 13.0906 14.4699 12.9792 14.5573 12.8917L17.4415 10.0001L14.5573 7.10839C14.4436 6.99035 14.3808 6.83238 14.3825 6.66851C14.3841 6.50463 14.4501 6.34796 14.5661 6.23224C14.6822 6.11652 14.839 6.05101 15.0029 6.04982C15.1668 6.04863 15.3246 6.11186 15.4423 6.22589L18.7673 9.55922C18.8841 9.67652 18.9497 9.83533 18.9497 10.0009C18.9497 10.1664 18.8841 10.3253 18.7673 10.4426L15.4423 13.7759C15.3842 13.834 15.3152 13.88 15.2393 13.9113C15.1633 13.9426 15.0819 13.9586 14.9998 13.9584Z" fill="#5C6271"/>
<path d="M10.8332 18.9583H3.33317C2.72552 18.9579 2.14288 18.7163 1.71321 18.2866C1.28353 17.857 1.04195 17.2743 1.0415 16.6667V4.16667C1.04195 3.55901 1.28353 2.97638 1.71321 2.5467C2.14288 2.11703 2.72552 1.87544 3.33317 1.875H10.8332C11.4408 1.87544 12.0235 2.11703 12.4531 2.5467C12.8828 2.97638 13.1244 3.55901 13.1248 4.16667V5.83333C13.1248 5.99909 13.059 6.15806 12.9418 6.27527C12.8246 6.39249 12.6656 6.45833 12.4998 6.45833C12.3341 6.45833 12.1751 6.39249 12.0579 6.27527C11.9407 6.15806 11.8748 5.99909 11.8748 5.83333V4.16667C11.8744 3.89053 11.7645 3.62584 11.5693 3.43058C11.374 3.23533 11.1093 3.12544 10.8332 3.125H3.33317C3.05704 3.12544 2.79234 3.23533 2.59709 3.43058C2.40183 3.62584 2.29194 3.89053 2.2915 4.16667V16.6667C2.29194 16.9428 2.40183 17.2075 2.59709 17.4027C2.79234 17.598 3.05704 17.7079 3.33317 17.7083H10.8332C11.1093 17.7079 11.374 17.598 11.5693 17.4027C11.7645 17.2075 11.8744 16.9428 11.8748 16.6667V14.1667C11.8748 14.0009 11.9407 13.8419 12.0579 13.7247C12.1751 13.6075 12.3341 13.5417 12.4998 13.5417C12.6656 13.5417 12.8246 13.6075 12.9418 13.7247C13.059 13.8419 13.1248 14.0009 13.1248 14.1667V16.6667C13.1244 17.2743 12.8828 17.857 12.4531 18.2866C12.0235 18.7163 11.4408 18.9579 10.8332 18.9583Z" fill="#5C6271"/>
</svg>
