<svg width="20" height="20" viewBox="0 0 20 20" fill="none" xmlns="http://www.w3.org/2000/svg">
<path d="M16.5625 10.625C16.8111 10.625 17.0496 10.5262 17.2254 10.3504C17.4012 10.1746 17.5 9.93614 17.5 9.6875C17.5 9.43886 17.4012 9.2004 17.2254 9.02459C17.0496 8.84877 16.8111 8.75 16.5625 8.75H11.25V3.4375C11.25 3.18886 11.1512 2.9504 10.9754 2.77459C10.7996 2.59877 10.5611 2.5 10.3125 2.5C10.0639 2.5 9.8254 2.59877 9.64959 2.77459C9.47377 2.9504 9.375 3.18886 9.375 3.4375V8.75H4.0625C3.81386 8.75 3.5754 8.84877 3.39959 9.02459C3.22377 9.2004 3.125 9.43886 3.125 9.6875C3.125 9.93614 3.22377 10.1746 3.39959 10.3504C3.5754 10.5262 3.81386 10.625 4.0625 10.625H9.375V15.9375C9.375 16.1861 9.47377 16.4246 9.64959 16.6004C9.8254 16.7762 10.0639 16.875 10.3125 16.875C10.5611 16.875 10.7996 16.7762 10.9754 16.6004C11.1512 16.4246 11.25 16.1861 11.25 15.9375V10.625H16.5625Z" fill="#5C6271"/>
</svg>
