<svg width="20" height="20" viewBox="0 0 20 20" fill="none" xmlns="http://www.w3.org/2000/svg">
<g clip-path="url(#clip0_5623_3418)">
<path d="M13.0891 8.08926L18.3332 2.8452V5C18.3332 5.46023 18.7062 5.83332 19.1665 5.83332C19.6267 5.83332 19.9998 5.46023 19.9998 5V0.833398C19.9998 0.805937 19.9984 0.778477 19.9957 0.751094C19.9945 0.73875 19.9922 0.726797 19.9904 0.714648C19.9883 0.699922 19.9866 0.685156 19.9837 0.670508C19.9809 0.656523 19.9771 0.642969 19.9736 0.629258C19.9705 0.616641 19.9677 0.603945 19.9639 0.591445C19.9598 0.577969 19.9548 0.564961 19.95 0.551797C19.9455 0.539336 19.9414 0.526758 19.9364 0.514453C19.9313 0.502148 19.9253 0.490391 19.9196 0.478398C19.9137 0.465742 19.908 0.452969 19.9014 0.440547C19.8952 0.429062 19.8882 0.418125 19.8816 0.406953C19.8743 0.394805 19.8674 0.3825 19.8595 0.370625C19.8512 0.358281 19.842 0.34668 19.8332 0.334805C19.8257 0.324922 19.8189 0.314766 19.811 0.305117C19.7937 0.284063 19.7755 0.263789 19.7562 0.244531C19.756 0.244375 19.7559 0.244219 19.7558 0.244063C19.7556 0.243906 19.7555 0.243828 19.7553 0.243672C19.736 0.224414 19.7158 0.206172 19.6947 0.188867C19.6851 0.180937 19.6749 0.174062 19.665 0.166641C19.6532 0.157773 19.6416 0.148594 19.6292 0.140352C19.6173 0.132422 19.605 0.125547 19.5928 0.118281C19.5817 0.111602 19.5708 0.104609 19.5593 0.0984375C19.5469 0.0917969 19.5341 0.0861719 19.5214 0.0801953C19.5094 0.0745312 19.4976 0.0685547 19.4854 0.0634375C19.4731 0.0583594 19.4605 0.0542188 19.448 0.0497656C19.4348 0.0450391 19.4219 0.04 19.4084 0.0359375C19.3959 0.0321484 19.3832 0.029375 19.3706 0.0262109C19.3569 0.0227344 19.3433 0.0189062 19.3294 0.0161328C19.3147 0.0132422 19.3 0.0114844 19.2852 0.009375C19.2731 0.00765625 19.2611 0.0053125 19.2488 0.00410156C19.2214 0.00144531 19.194 0 19.1665 0H14.9998C14.5396 0 14.1665 0.373086 14.1665 0.83332C14.1665 1.29355 14.5396 1.66664 14.9998 1.66664H17.1546L11.9106 6.91074C11.5851 7.23617 11.5851 7.76383 11.9106 8.08926C12.236 8.41469 12.7637 8.41469 13.0891 8.08926Z" fill="#5C6271"/>
<path d="M6.91074 11.9111L1.66668 17.1551V15.0003C1.66668 14.5401 1.29359 14.167 0.833359 14.167C0.373086 14.167 0 14.5401 0 15.0003V19.167C0 19.1945 0.00144531 19.2219 0.00414062 19.2492C0.00535156 19.2615 0.00765625 19.2735 0.00941406 19.2857C0.0115234 19.3004 0.0132422 19.3152 0.0161719 19.3298C0.0189453 19.3438 0.0227734 19.3573 0.02625 19.371C0.0294141 19.3837 0.0321875 19.3964 0.0359766 19.4089C0.0400391 19.4223 0.0450781 19.4353 0.0498047 19.4484C0.0542969 19.4609 0.0583984 19.4735 0.0634766 19.4858C0.0685547 19.4981 0.0745703 19.5099 0.0802344 19.5219C0.0862109 19.5345 0.0918359 19.5473 0.0984766 19.5597C0.104648 19.5712 0.111641 19.5821 0.11832 19.5933C0.125586 19.6054 0.132461 19.6178 0.140391 19.6297C0.148633 19.642 0.157813 19.6536 0.16668 19.6654C0.174102 19.6754 0.180977 19.6855 0.188906 19.6952C0.206211 19.7163 0.224453 19.7365 0.243711 19.7558C0.243867 19.7559 0.243945 19.7561 0.244102 19.7562C0.244258 19.7564 0.244414 19.7565 0.24457 19.7566C0.263828 19.7759 0.284102 19.7941 0.305156 19.8114C0.314805 19.8193 0.324961 19.8262 0.334844 19.8336C0.346719 19.8425 0.35832 19.8517 0.370664 19.8599C0.3825 19.8679 0.394805 19.8747 0.406992 19.882C0.418164 19.8887 0.429063 19.8957 0.440586 19.9018C0.453008 19.9085 0.465781 19.9141 0.478438 19.9201C0.49043 19.9258 0.502227 19.9317 0.514492 19.9368C0.526797 19.9419 0.539336 19.946 0.551836 19.9505C0.565 19.9552 0.578008 19.9602 0.591484 19.9643C0.603984 19.9681 0.61668 19.9709 0.629297 19.9741C0.643008 19.9775 0.656563 19.9814 0.670547 19.9842C0.685195 19.987 0.699961 19.9888 0.714687 19.9909C0.726836 19.9926 0.738828 19.9949 0.751133 19.9961C0.778477 19.9988 0.805898 20.0003 0.83332 20.0003H5C5.46023 20.0003 5.83332 19.6272 5.83332 19.167C5.83332 18.7067 5.46023 18.3336 5 18.3336H2.8452L8.08926 13.0896C8.41469 12.7641 8.41469 12.2365 8.08926 11.9111C7.76383 11.5856 7.23617 11.5856 6.91074 11.9111Z" fill="#5C6271"/>
<path d="M19.8333 19.6654C19.8421 19.6536 19.8513 19.642 19.8595 19.6297C19.8675 19.6178 19.8743 19.6055 19.8816 19.5933C19.8882 19.5822 19.8952 19.5713 19.9014 19.5598C19.908 19.5474 19.9137 19.5346 19.9196 19.5219C19.9253 19.5099 19.9312 19.4982 19.9364 19.4859C19.9414 19.4736 19.9456 19.461 19.95 19.4485C19.9548 19.4354 19.9598 19.4224 19.9639 19.409C19.9676 19.3965 19.9704 19.3837 19.9736 19.3711C19.9771 19.3574 19.9809 19.3438 19.9837 19.3299C19.9866 19.3152 19.9883 19.3005 19.9904 19.2858C19.9921 19.2736 19.9945 19.2616 19.9957 19.2493C19.9984 19.2219 19.9998 19.1945 19.9998 19.167V15.0003C19.9998 14.5401 19.6267 14.167 19.1665 14.167C18.7063 14.167 18.3332 14.5401 18.3332 15.0003V17.1551L13.0891 11.9111C12.7637 11.5856 12.236 11.5856 11.9106 11.9111C11.5851 12.2365 11.5851 12.7641 11.9106 13.0896L17.1546 18.3336H14.9998C14.5396 18.3336 14.1665 18.7067 14.1665 19.167C14.1665 19.6272 14.5396 20.0003 14.9998 20.0003H19.1665C19.194 20.0003 19.2214 19.9989 19.2487 19.9962C19.261 19.995 19.273 19.9927 19.2852 19.9909C19.2999 19.9888 19.3147 19.9871 19.3293 19.9841C19.3433 19.9814 19.3568 19.9775 19.3705 19.9741C19.3832 19.9709 19.3959 19.9681 19.4084 19.9643C19.4218 19.9603 19.4348 19.9552 19.448 19.9505C19.4605 19.946 19.473 19.9419 19.4853 19.9368C19.4976 19.9318 19.5094 19.9258 19.5213 19.9201C19.534 19.9141 19.5468 19.9085 19.5592 19.9018C19.5707 19.8957 19.5816 19.8887 19.5927 19.8821C19.6049 19.8748 19.6173 19.8679 19.6291 19.86C19.6414 19.8517 19.653 19.8426 19.6648 19.8338C19.6748 19.8263 19.685 19.8194 19.6946 19.8115C19.7155 19.7943 19.7357 19.7762 19.7548 19.7571C19.7551 19.7568 19.7554 19.7565 19.7557 19.7563C19.756 19.756 19.7562 19.7556 19.7565 19.7554C19.7756 19.7362 19.7937 19.7161 19.8109 19.6952C19.8189 19.6855 19.8258 19.6753 19.8333 19.6654Z" fill="#5C6271"/>
<path d="M2.8452 1.66668H5C5.46023 1.66668 5.83332 1.29359 5.83332 0.833359C5.83332 0.373086 5.46023 0 5 0H0.83332C0.805898 0 0.778398 0.00144531 0.751094 0.00414062C0.73875 0.00535156 0.726797 0.00765625 0.714648 0.00941406C0.699922 0.0115234 0.685156 0.0132422 0.670508 0.0161328C0.656523 0.0189062 0.642969 0.0227344 0.629258 0.0262109C0.616641 0.029375 0.603945 0.0321484 0.591445 0.0359375C0.577969 0.04 0.564961 0.0450781 0.551797 0.0498047C0.539336 0.0542969 0.526758 0.0583984 0.514453 0.0634766C0.502148 0.0685937 0.490312 0.0745703 0.47832 0.0802734C0.465703 0.0862109 0.45293 0.0918359 0.440547 0.0984766C0.429023 0.104648 0.418086 0.11168 0.406875 0.118359C0.394766 0.125586 0.382461 0.132422 0.370625 0.140352C0.358242 0.148633 0.346602 0.157852 0.334688 0.166758C0.324844 0.174141 0.314727 0.180977 0.305156 0.188867C0.262695 0.223711 0.223711 0.262695 0.188867 0.305156C0.180977 0.314727 0.174141 0.324844 0.166758 0.334727C0.157852 0.346641 0.148633 0.358281 0.140352 0.370664C0.132422 0.3825 0.125586 0.394766 0.11832 0.406914C0.111641 0.418086 0.104609 0.429063 0.0984375 0.440586C0.0917969 0.452969 0.0862109 0.465703 0.0802344 0.478359C0.0745703 0.490352 0.0685547 0.502187 0.0634375 0.514492C0.0583594 0.526797 0.0542578 0.539336 0.0497656 0.551836C0.0450391 0.565 0.04 0.578008 0.0358984 0.591484C0.0321094 0.603984 0.0293359 0.61668 0.0261719 0.629297C0.0226953 0.643008 0.0188672 0.656563 0.0160937 0.670547C0.0132031 0.685195 0.0114844 0.699961 0.009375 0.714687C0.00765625 0.726836 0.0053125 0.738828 0.00410156 0.751133C0.00144531 0.778437 0 0.805859 0 0.83332V5C0 5.46023 0.373086 5.83332 0.83332 5.83332C1.29355 5.83332 1.66664 5.46023 1.66664 5V2.8452L6.9107 8.08926C7.23613 8.41469 7.76379 8.41469 8.08922 8.08926C8.41465 7.76383 8.41465 7.23617 8.08922 6.91074L2.8452 1.66668Z" fill="#5C6271"/>
</g>
<defs>
<clipPath id="clip0_5623_3418">
<rect width="20" height="20" fill="white"/>
</clipPath>
</defs>
</svg>
