<svg width="18" height="18" viewBox="0 0 18 18" fill="none" xmlns="http://www.w3.org/2000/svg">
<path d="M16.9999 17.0004L12.9499 12.9504M12.9499 12.9504C13.5999 12.3003 14.1156 11.5286 14.4674 10.6793C14.8192 9.82995 15.0002 8.91966 15.0002 8.00036C15.0002 7.08106 14.8192 6.17076 14.4674 5.32144C14.1156 4.47211 13.5999 3.7004 12.9499 3.05036C12.2998 2.40031 11.5281 1.88467 10.6788 1.53287C9.82947 1.18107 8.91917 1 7.99987 1C7.08057 1 6.17027 1.18107 5.32095 1.53287C4.47163 1.88467 3.69991 2.40031 3.04987 3.05036C1.73705 4.36318 0.999512 6.14375 0.999512 8.00036C0.999512 9.85697 1.73705 11.6375 3.04987 12.9504C4.36269 14.2632 6.14326 15.0007 7.99987 15.0007C9.85648 15.0007 11.637 14.2632 12.9499 12.9504Z" stroke="#5C6271" stroke-width="1.5" stroke-linecap="round" stroke-linejoin="round"/>
</svg>
