<svg width="18" height="18" viewBox="0 0 18 18" fill="none" xmlns="http://www.w3.org/2000/svg">
<path d="M17.1537 0.889274C16.99 0.724441 16.7834 0.60879 16.5572 0.555438C16.3311 0.502086 16.0946 0.513169 15.8744 0.58743L1.69749 5.31306C1.44549 5.39699 1.22677 5.55901 1.07307 5.77564C0.919363 5.99227 0.838666 6.25222 0.842679 6.51781C0.846693 6.78339 0.935208 7.04079 1.09539 7.25267C1.25556 7.46456 1.47908 7.6199 1.7335 7.69618L8.03693 9.58739C8.136 9.61692 8.22617 9.67065 8.29927 9.74376C8.37237 9.81686 8.42611 9.90702 8.45564 10.0061L10.3465 16.3092C10.4221 16.564 10.5772 16.7879 10.7891 16.9482C11.0011 17.1085 11.2588 17.1967 11.5245 17.2L11.544 17.2003C11.8064 17.2009 12.0624 17.1186 12.2752 16.9651C12.4881 16.8116 12.647 16.5947 12.7293 16.3455L17.4553 2.16857C17.5295 1.94846 17.5407 1.71193 17.4874 1.48582C17.4341 1.2597 17.3185 1.05304 17.1537 0.889274ZM11.544 15.9503L9.65313 9.64691C9.62171 9.55775 9.58352 9.47113 9.53888 9.38781L13.2133 5.71319C13.2713 5.65516 13.3174 5.58626 13.3488 5.51044C13.3802 5.43462 13.3963 5.35336 13.3963 5.27129C13.3963 5.18923 13.3802 5.10796 13.3488 5.03214C13.3174 4.95632 13.2713 4.88743 13.2133 4.8294C13.1553 4.77137 13.0864 4.72534 13.0106 4.69393C12.9347 4.66253 12.8535 4.64636 12.7714 4.64636C12.6893 4.64636 12.6081 4.66253 12.5323 4.69393C12.4564 4.72534 12.3876 4.77137 12.3295 4.8294L8.65515 8.50402C8.57184 8.45942 8.48523 8.42126 8.39609 8.38989L2.0927 6.49902L16.27 1.77306L11.544 15.9503ZM1.33831 13.8382C1.22111 13.9554 1.06216 14.0212 0.896416 14.0212C0.730674 14.0212 0.57172 13.9554 0.454523 13.8382C0.337325 13.721 0.271484 13.562 0.271484 13.3963C0.271484 13.2306 0.337325 13.0716 0.454523 12.9544L3.57952 9.8294C3.69672 9.7122 3.85567 9.64636 4.02142 9.64636C4.18716 9.64636 4.34611 9.7122 4.46331 9.8294C4.58051 9.9466 4.64635 10.1056 4.64635 10.2713C4.64635 10.437 4.58051 10.596 4.46331 10.7132L1.33831 13.8382ZM8.21331 13.5794C8.27136 13.6374 8.31741 13.7063 8.34883 13.7821C8.38025 13.858 8.39642 13.9392 8.39642 14.0213C8.39642 14.1034 8.38025 14.1846 8.34883 14.2605C8.31741 14.3363 8.27136 14.4052 8.21331 14.4632L5.08831 17.5882C5.03028 17.6462 4.96139 17.6923 4.88557 17.7237C4.80975 17.7551 4.72848 17.7712 4.64642 17.7712C4.56435 17.7712 4.48309 17.7551 4.40727 17.7237C4.33145 17.6923 4.26255 17.6462 4.20452 17.5882C4.14649 17.5302 4.10046 17.4613 4.06905 17.3854C4.03765 17.3096 4.02148 17.2284 4.02148 17.1463C4.02148 17.0642 4.03765 16.983 4.06905 16.9071C4.10046 16.8313 4.14649 16.7624 4.20452 16.7044L7.32952 13.5794C7.38754 13.5213 7.45643 13.4753 7.53225 13.4439C7.60807 13.4125 7.68934 13.3963 7.77142 13.3963C7.85349 13.3963 7.93476 13.4125 8.01058 13.4439C8.0864 13.4753 8.15529 13.5213 8.21331 13.5794ZM5.07 13.8138L1.96636 16.9601C1.90873 17.0186 1.84015 17.0651 1.76455 17.097C1.68894 17.1289 1.60779 17.1457 1.52572 17.1462C1.44366 17.1468 1.36228 17.1312 1.28624 17.1003C1.2102 17.0694 1.14099 17.0239 1.08256 16.9662C1.02413 16.9086 0.977625 16.84 0.945697 16.7644C0.913768 16.6888 0.897043 16.6077 0.896478 16.5256C0.895912 16.4435 0.911517 16.3621 0.9424 16.2861C0.973284 16.2101 1.01884 16.1409 1.07647 16.0824L4.18011 12.9361C4.29663 12.8187 4.45494 12.7522 4.62035 12.7513C4.78576 12.7505 4.94478 12.8152 5.06254 12.9313C5.18031 13.0475 5.24723 13.2056 5.24863 13.371C5.25002 13.5364 5.18579 13.6956 5.07 13.8138Z" fill="#5C6271"/>
</svg>
