<svg width="18" height="18" viewBox="0 0 18 18" fill="none" xmlns="http://www.w3.org/2000/svg">
<path d="M17.1537 0.389518C16.99 0.224685 16.7834 0.109034 16.5572 0.0556819C16.3311 0.00233012 16.0946 0.0134133 15.8744 0.0876744L1.69749 4.8133C1.44549 4.89723 1.22677 5.05926 1.07307 5.27588C0.919363 5.49251 0.838666 5.75247 0.842679 6.01805C0.846693 6.28364 0.935208 6.54104 1.09539 6.75292C1.25556 6.9648 1.47908 7.12015 1.7335 7.19642L8.03693 9.08764C8.136 9.11716 8.22617 9.1709 8.29927 9.244C8.37237 9.3171 8.42611 9.40726 8.45564 9.50634L10.3465 15.8095C10.4221 16.0642 10.5772 16.2881 10.7891 16.4484C11.0011 16.6087 11.2588 16.697 11.5245 16.7003L11.544 16.7006C11.8064 16.7012 12.0624 16.6188 12.2752 16.4653C12.4881 16.3118 12.647 16.095 12.7293 15.8458L17.4553 1.66881C17.5295 1.4487 17.5407 1.21218 17.4874 0.986061C17.4341 0.759946 17.3185 0.553287 17.1537 0.389518ZM11.544 15.4506L9.65313 9.14715C9.62171 9.058 9.58352 8.97138 9.53888 8.88805L13.2133 5.21343C13.2713 5.1554 13.3174 5.08651 13.3488 5.01069C13.3802 4.93487 13.3963 4.8536 13.3963 4.77154C13.3963 4.68947 13.3802 4.60821 13.3488 4.53239C13.3174 4.45657 13.2713 4.38767 13.2133 4.32964C13.1553 4.27161 13.0864 4.22558 13.0106 4.19418C12.9347 4.16277 12.8535 4.1466 12.7714 4.1466C12.6893 4.1466 12.6081 4.16277 12.5323 4.19418C12.4564 4.22558 12.3876 4.27161 12.3295 4.32964L8.65515 8.00426C8.57184 7.95966 8.48523 7.9215 8.39609 7.89013L2.0927 5.99926L16.27 1.2733L11.544 15.4506ZM1.33831 13.3384C1.22111 13.4556 1.06216 13.5215 0.896416 13.5215C0.730674 13.5215 0.57172 13.4556 0.454523 13.3384C0.337325 13.2212 0.271484 13.0623 0.271484 12.8965C0.271484 12.7308 0.337325 12.5718 0.454523 12.4546L3.57952 9.32964C3.69672 9.21245 3.85567 9.1466 4.02142 9.1466C4.18716 9.1466 4.34611 9.21245 4.46331 9.32964C4.58051 9.44684 4.64635 9.60579 4.64635 9.77154C4.64635 9.93728 4.58051 10.0962 4.46331 10.2134L1.33831 13.3384ZM8.21331 13.0796C8.27136 13.1377 8.31741 13.2066 8.34883 13.2824C8.38025 13.3582 8.39642 13.4395 8.39642 13.5215C8.39642 13.6036 8.38025 13.6849 8.34883 13.7607C8.31741 13.8365 8.27136 13.9054 8.21331 13.9634L5.08831 17.0884C5.03028 17.1465 4.96139 17.1925 4.88557 17.2239C4.80975 17.2553 4.72848 17.2715 4.64642 17.2715C4.56435 17.2715 4.48309 17.2553 4.40727 17.2239C4.33145 17.1925 4.26255 17.1465 4.20452 17.0884C4.14649 17.0304 4.10046 16.9615 4.06905 16.8857C4.03765 16.8099 4.02148 16.7286 4.02148 16.6465C4.02148 16.5645 4.03765 16.4832 4.06905 16.4074C4.10046 16.3316 4.14649 16.2627 4.20452 16.2046L7.32952 13.0796C7.38754 13.0216 7.45643 12.9755 7.53225 12.9441C7.60807 12.9127 7.68934 12.8965 7.77142 12.8965C7.85349 12.8965 7.93476 12.9127 8.01058 12.9441C8.0864 12.9755 8.15529 13.0216 8.21331 13.0796ZM5.07 13.314L1.96636 16.4604C1.90873 16.5188 1.84015 16.5653 1.76455 16.5972C1.68894 16.6292 1.60779 16.6459 1.52572 16.6465C1.44366 16.647 1.36228 16.6314 1.28624 16.6005C1.2102 16.5697 1.14099 16.5241 1.08256 16.4665C1.02413 16.4088 0.977625 16.3403 0.945696 16.2647C0.913768 16.1891 0.897043 16.1079 0.896478 16.0258C0.895912 15.9438 0.911517 15.8624 0.9424 15.7864C0.973284 15.7103 1.01884 15.6411 1.07647 15.5827L4.18011 12.4363C4.29663 12.3189 4.45494 12.2525 4.62035 12.2516C4.78576 12.2507 4.94478 12.3154 5.06254 12.4316C5.18031 12.5477 5.24723 12.7058 5.24863 12.8713C5.25002 13.0367 5.18579 13.1959 5.07 13.314Z" fill="white"/>
</svg>
