<svg width="18" height="18" viewBox="0 0 18 18" fill="none" xmlns="http://www.w3.org/2000/svg">
<path d="M17.1537 0.889518C16.99 0.724685 16.7834 0.609034 16.5572 0.555682C16.3311 0.50233 16.0946 0.513413 15.8744 0.587674L1.69749 5.3133C1.44549 5.39723 1.22677 5.55926 1.07307 5.77588C0.919363 5.99251 0.838666 6.25247 0.842679 6.51805C0.846693 6.78364 0.935208 7.04104 1.09539 7.25292C1.25556 7.4648 1.47908 7.62015 1.7335 7.69642L8.03693 9.58764C8.136 9.61716 8.22617 9.6709 8.29927 9.744C8.37237 9.8171 8.42611 9.90726 8.45564 10.0063L10.3465 16.3095C10.4221 16.5642 10.5772 16.7881 10.7891 16.9484C11.0011 17.1087 11.2588 17.197 11.5245 17.2003L11.544 17.2006C11.8064 17.2012 12.0624 17.1188 12.2752 16.9653C12.4881 16.8118 12.647 16.595 12.7293 16.3458L17.4553 2.16881C17.5295 1.9487 17.5407 1.71218 17.4874 1.48606C17.4341 1.25995 17.3185 1.05329 17.1537 0.889518ZM11.544 15.9506L9.65313 9.64715C9.62171 9.558 9.58352 9.47138 9.53888 9.38805L13.2133 5.71343C13.2713 5.6554 13.3174 5.58651 13.3488 5.51069C13.3802 5.43487 13.3963 5.3536 13.3963 5.27154C13.3963 5.18947 13.3802 5.10821 13.3488 5.03239C13.3174 4.95657 13.2713 4.88767 13.2133 4.82964C13.1553 4.77161 13.0864 4.72558 13.0106 4.69418C12.9347 4.66277 12.8535 4.6466 12.7714 4.6466C12.6893 4.6466 12.6081 4.66277 12.5323 4.69418C12.4564 4.72558 12.3876 4.77161 12.3295 4.82964L8.65515 8.50426C8.57184 8.45966 8.48523 8.4215 8.39609 8.39013L2.0927 6.49926L16.27 1.7733L11.544 15.9506ZM1.33831 13.8384C1.22111 13.9556 1.06216 14.0215 0.896416 14.0215C0.730674 14.0215 0.57172 13.9556 0.454523 13.8384C0.337325 13.7212 0.271484 13.5623 0.271484 13.3965C0.271484 13.2308 0.337325 13.0718 0.454523 12.9546L3.57952 9.82964C3.69672 9.71245 3.85567 9.6466 4.02142 9.6466C4.18716 9.6466 4.34611 9.71245 4.46331 9.82964C4.58051 9.94684 4.64635 10.1058 4.64635 10.2715C4.64635 10.4373 4.58051 10.5962 4.46331 10.7134L1.33831 13.8384ZM8.21331 13.5796C8.27136 13.6377 8.31741 13.7066 8.34883 13.7824C8.38025 13.8582 8.39642 13.9395 8.39642 14.0215C8.39642 14.1036 8.38025 14.1849 8.34883 14.2607C8.31741 14.3365 8.27136 14.4054 8.21331 14.4634L5.08831 17.5884C5.03028 17.6465 4.96139 17.6925 4.88557 17.7239C4.80975 17.7553 4.72848 17.7715 4.64642 17.7715C4.56435 17.7715 4.48309 17.7553 4.40727 17.7239C4.33145 17.6925 4.26255 17.6465 4.20452 17.5884C4.14649 17.5304 4.10046 17.4615 4.06905 17.3857C4.03765 17.3099 4.02148 17.2286 4.02148 17.1465C4.02148 17.0645 4.03765 16.9832 4.06905 16.9074C4.10046 16.8316 4.14649 16.7627 4.20452 16.7046L7.32952 13.5796C7.38754 13.5216 7.45643 13.4755 7.53225 13.4441C7.60807 13.4127 7.68934 13.3965 7.77142 13.3965C7.85349 13.3965 7.93476 13.4127 8.01058 13.4441C8.0864 13.4755 8.15529 13.5216 8.21331 13.5796ZM5.07 13.814L1.96636 16.9604C1.90873 17.0188 1.84015 17.0653 1.76455 17.0972C1.68894 17.1292 1.60779 17.1459 1.52572 17.1465C1.44366 17.147 1.36228 17.1314 1.28624 17.1005C1.2102 17.0697 1.14099 17.0241 1.08256 16.9665C1.02413 16.9088 0.977625 16.8403 0.945696 16.7647C0.913768 16.6891 0.897043 16.6079 0.896478 16.5258C0.895912 16.4438 0.911517 16.3624 0.9424 16.2864C0.973284 16.2103 1.01884 16.1411 1.07647 16.0827L4.18011 12.9363C4.29663 12.8189 4.45494 12.7525 4.62035 12.7516C4.78576 12.7507 4.94478 12.8154 5.06254 12.9316C5.18031 13.0477 5.24723 13.2058 5.24863 13.3713C5.25002 13.5367 5.18579 13.6959 5.07 13.814Z" fill="#5C6271"/>
</svg>
