<svg width="20" height="20" viewBox="0 0 20 20" fill="none" xmlns="http://www.w3.org/2000/svg">
<g clip-path="url(#clip0_5522_20753)">
<path d="M19.3934 3.54633C19.3114 3.37465 19.1512 3.25352 18.9637 3.22137C18.7762 3.18934 18.5848 3.25004 18.4503 3.38457L15.0982 6.7368L13.2641 4.9027L16.6162 1.55055C16.7507 1.41605 16.8116 1.22461 16.7794 1.03719C16.7472 0.849688 16.6261 0.689531 16.4545 0.607539C15.6223 0.210039 14.6928 0 13.7663 0C12.1012 0 10.5358 0.648398 9.35844 1.8257C7.59293 3.59121 7.06008 6.24098 7.9723 8.53715L0.724101 15.7855C0.721484 15.7881 0.718945 15.7907 0.716406 15.7934C0.254961 16.2587 0.000976562 16.8755 0.000976562 17.5312C0.000976562 18.1907 0.257773 18.8106 0.724101 19.2769C1.19039 19.7432 1.81031 20 2.46973 20C3.12914 20 3.7491 19.7432 4.21535 19.2769L11.464 12.0283C12.193 12.3168 12.9812 12.468 13.7673 12.468C13.7675 12.468 13.7675 12.468 13.7677 12.468C15.4326 12.468 16.9979 11.8196 18.1752 10.6423C20.0403 8.77727 20.5298 5.92559 19.3934 3.54633ZM17.3466 9.81367C16.3905 10.7697 15.1194 11.2962 13.7674 11.2961C13.0145 11.2961 12.2596 11.1256 11.5843 10.8031C11.3602 10.696 11.093 10.7419 10.9175 10.9175L3.38676 18.4482C3.1418 18.6932 2.81617 18.8281 2.46973 18.8281C2.12332 18.8281 1.79766 18.6932 1.5527 18.4482C1.30773 18.2033 1.17281 17.8776 1.17281 17.5312C1.17281 17.1848 1.30773 16.8592 1.55273 16.6141C1.55504 16.6118 1.5573 16.6096 1.55953 16.6072L9.08324 9.08332C9.25883 8.90773 9.30465 8.64055 9.19766 8.41648C8.27484 6.48449 8.67246 4.16887 10.187 2.6543C11.1431 1.69836 12.4142 1.17188 13.7663 1.17188C14.2319 1.17188 14.6984 1.23711 15.1463 1.36316L12.0212 4.48836C11.7923 4.71715 11.7923 5.08816 12.0212 5.31699L14.6839 7.97977C14.7938 8.08969 14.9428 8.15141 15.0982 8.15141C15.2536 8.15141 15.4027 8.08969 15.5125 7.97977L18.6384 4.85371C19.1307 6.59531 18.6562 8.50406 17.3466 9.81367Z" fill="#D8DEE8"/>
</g>
<defs>
<clipPath id="clip0_5522_20753">
<rect width="20" height="20" fill="white"/>
</clipPath>
</defs>
</svg>
