<svg width="32" height="35" viewBox="0 0 32 35" fill="none" xmlns="http://www.w3.org/2000/svg">
<path d="M26.8741 5.12565C23.5688 1.82027 19.1741 0 14.4997 0C9.46744 0 4.76876 2.11743 1.44588 5.84473L1.75644 3.6709C1.80067 3.36089 1.58526 3.07378 1.27532 3.02948C0.965245 2.98553 0.678204 3.20065 0.633907 3.51053L0.029132 7.74382C0.00137811 7.9383 0.0763 8.13333 0.227101 8.25932C0.330597 8.34565 0.459522 8.39098 0.590499 8.39098C0.650519 8.39098 0.711085 8.38147 0.769737 8.36186L4.39825 7.15237C4.69534 7.05332 4.85585 6.7323 4.75687 6.43521C4.65775 6.13813 4.3368 5.97748 4.03971 6.0766L2.2167 6.68432C5.32842 3.14597 9.75571 1.13388 14.4997 1.13388C18.8712 1.13388 22.9811 2.83623 26.0723 5.92737C29.1635 9.01858 30.8658 13.1284 30.8658 17.5C30.8658 21.8716 29.1635 25.9814 26.0723 29.0726C22.9811 32.1638 18.8713 33.8661 14.4997 33.8661C14.1866 33.8661 13.9327 34.1199 13.9327 34.4331C13.9327 34.7462 14.1866 35.0001 14.4997 35.0001C19.1741 35.0001 23.5688 33.1798 26.8741 29.8744C30.1793 26.569 31.9997 22.1744 31.9997 17.5C31.9997 12.8256 30.1794 8.4309 26.8741 5.12565Z" fill="#DBDEEB"/>
</svg>
