<svg width="1214" height="662" viewBox="0 0 1214 662" fill="none" xmlns="http://www.w3.org/2000/svg">
<rect x="30" y="20" width="200" height="200" rx="20" fill="#CBD1DA"/>
<g clip-path="url(#clip0_1_3821)">
<path d="M129.287 118.17C135.905 118.17 141.635 115.797 146.317 111.114C151 106.432 153.373 100.703 153.373 94.0844C153.373 87.4682 151 81.7385 146.317 77.0549C141.634 72.3735 135.904 70 129.287 70C122.669 70 116.94 72.3735 112.258 77.0556C107.575 81.7378 105.201 87.4674 105.201 94.0844C105.201 100.703 107.575 106.432 112.258 111.115C116.941 115.796 122.671 118.17 129.287 118.17Z" fill="white"/>
<path d="M171.431 146.895C171.296 144.946 171.023 142.821 170.621 140.576C170.215 138.315 169.693 136.177 169.067 134.223C168.421 132.204 167.542 130.209 166.455 128.298C165.328 126.315 164.003 124.587 162.517 123.166C160.963 121.679 159.06 120.483 156.86 119.611C154.667 118.744 152.237 118.304 149.638 118.304C148.617 118.304 147.63 118.723 145.723 119.965C144.55 120.73 143.177 121.615 141.645 122.594C140.335 123.428 138.561 124.21 136.369 124.918C134.23 125.61 132.059 125.961 129.916 125.961C127.773 125.961 125.602 125.61 123.462 124.918C121.272 124.211 119.497 123.429 118.189 122.594C116.671 121.625 115.298 120.74 114.107 119.964C112.203 118.723 111.215 118.304 110.194 118.304C107.594 118.304 105.165 118.744 102.973 119.612C100.774 120.483 98.8705 121.678 97.3149 123.167C95.8295 124.589 94.5042 126.315 93.3781 128.298C92.2925 130.209 91.4136 132.203 90.7666 134.224C90.1418 136.178 89.6191 138.315 89.2133 140.576C88.8112 142.818 88.5381 144.944 88.403 146.897C88.2703 148.81 88.2031 150.796 88.2031 152.802C88.2031 158.022 89.8625 162.248 93.1348 165.365C96.3666 168.44 100.643 170 105.843 170H153.994C159.194 170 163.469 168.441 166.701 165.365C169.974 162.25 171.633 158.024 171.633 152.801C171.633 150.786 171.565 148.799 171.431 146.895Z" fill="white"/>
</g>
<g filter="url(#filter0_d_1_3821)">
<rect x="74" y="198" width="111" height="40" rx="20" fill="white"/>
<path d="M106.96 220.062C106.794 220.062 106.635 220.128 106.518 220.246C106.401 220.363 106.335 220.522 106.335 220.687V222.822C106.335 223.325 106.135 223.807 105.779 224.163C105.423 224.519 104.941 224.719 104.438 224.719H93.5629C93.0598 224.719 92.5773 224.519 92.2216 224.163C91.8659 223.807 91.666 223.325 91.666 222.822V220.687C91.666 220.522 91.6002 220.363 91.483 220.246C91.3657 220.128 91.2068 220.062 91.041 220.062C90.8753 220.062 90.7163 220.128 90.5991 220.246C90.4819 220.363 90.416 220.522 90.416 220.687V222.822C90.4168 223.656 90.7487 224.456 91.3386 225.046C91.9286 225.636 92.7285 225.968 93.5629 225.969H104.438C105.272 225.968 106.072 225.636 106.662 225.046C107.252 224.456 107.584 223.656 107.585 222.822V220.687C107.585 220.522 107.519 220.363 107.402 220.246C107.284 220.128 107.126 220.062 106.96 220.062Z" fill="black"/>
<path d="M95.8758 214.656L98.3758 212.156V221.438C98.3758 221.603 98.4416 221.762 98.5588 221.88C98.676 221.997 98.835 222.063 99.0008 222.063C99.1665 222.063 99.3255 221.997 99.4427 221.88C99.5599 221.762 99.6258 221.603 99.6258 221.438V212.166L102.126 214.666C102.184 214.724 102.253 214.77 102.329 214.801C102.405 214.833 102.486 214.849 102.568 214.849C102.65 214.849 102.731 214.833 102.807 214.801C102.883 214.77 102.952 214.724 103.01 214.666C103.068 214.608 103.114 214.539 103.146 214.463C103.177 214.387 103.193 214.306 103.193 214.224C103.193 214.141 103.177 214.06 103.146 213.984C103.114 213.908 103.068 213.839 103.01 213.781L99.4445 210.216C99.3576 210.131 99.2497 210.072 99.132 210.044C99.0309 210.025 98.9267 210.031 98.8283 210.061C98.7299 210.091 98.6401 210.144 98.5664 210.216L95.0008 213.772C94.9015 213.891 94.8503 214.043 94.857 214.199C94.8638 214.354 94.928 214.501 95.0372 214.611C95.1463 214.721 95.2927 214.787 95.4477 214.796C95.6027 214.804 95.7553 214.754 95.8758 214.656Z" fill="black"/>
<path d="M124.571 214.257C124.093 214.257 123.664 214.343 123.286 214.517C122.912 214.69 122.596 214.94 122.336 215.269C122.076 215.592 121.878 215.986 121.741 216.451C121.604 216.911 121.536 217.431 121.536 218.01C121.536 218.785 121.646 219.452 121.864 220.013C122.083 220.569 122.416 220.997 122.862 221.298C123.309 221.594 123.874 221.742 124.558 221.742C124.981 221.742 125.394 221.701 125.795 221.619C126.196 221.537 126.611 221.425 127.039 221.284V222.679C126.633 222.838 126.223 222.954 125.809 223.027C125.394 223.1 124.915 223.137 124.373 223.137C123.352 223.137 122.505 222.925 121.83 222.501C121.16 222.077 120.659 221.48 120.326 220.71C119.998 219.94 119.834 219.037 119.834 218.003C119.834 217.246 119.939 216.554 120.148 215.925C120.358 215.296 120.663 214.754 121.064 214.298C121.465 213.838 121.96 213.484 122.548 213.238C123.14 212.988 123.817 212.862 124.578 212.862C125.079 212.862 125.572 212.919 126.055 213.033C126.542 213.143 126.993 213.3 127.408 213.505L126.834 214.858C126.488 214.694 126.125 214.553 125.747 214.435C125.369 214.316 124.977 214.257 124.571 214.257ZM130.628 212.363V215.036C130.628 215.314 130.619 215.585 130.601 215.85C130.587 216.114 130.571 216.319 130.553 216.465H130.642C130.801 216.201 130.997 215.984 131.229 215.815C131.462 215.642 131.722 215.512 132.009 215.426C132.3 215.339 132.61 215.296 132.938 215.296C133.517 215.296 134.009 215.394 134.415 215.59C134.821 215.781 135.131 216.08 135.345 216.485C135.563 216.891 135.673 217.417 135.673 218.064V223H134.066V218.365C134.066 217.777 133.946 217.338 133.704 217.046C133.463 216.75 133.089 216.602 132.583 216.602C132.095 216.602 131.708 216.704 131.421 216.909C131.138 217.11 130.936 217.408 130.812 217.805C130.689 218.197 130.628 218.675 130.628 219.24V223H129.021V212.363H130.628ZM140.889 215.289C141.846 215.289 142.568 215.501 143.056 215.925C143.548 216.349 143.794 217.009 143.794 217.907V223H142.652L142.345 221.927H142.29C142.076 222.2 141.855 222.426 141.627 222.604C141.399 222.781 141.135 222.913 140.834 223C140.538 223.091 140.175 223.137 139.747 223.137C139.296 223.137 138.893 223.055 138.537 222.891C138.182 222.722 137.901 222.467 137.696 222.125C137.491 221.783 137.389 221.35 137.389 220.826C137.389 220.047 137.678 219.461 138.257 219.069C138.84 218.677 139.72 218.461 140.896 218.42L142.208 218.372V217.976C142.208 217.451 142.085 217.078 141.839 216.854C141.597 216.631 141.256 216.52 140.813 216.52C140.435 216.52 140.068 216.574 139.713 216.684C139.357 216.793 139.011 216.927 138.674 217.087L138.154 215.952C138.523 215.756 138.943 215.597 139.412 215.474C139.886 215.351 140.378 215.289 140.889 215.289ZM142.201 219.384L141.224 219.418C140.422 219.445 139.859 219.582 139.535 219.828C139.212 220.074 139.05 220.411 139.05 220.84C139.05 221.214 139.161 221.487 139.385 221.66C139.608 221.829 139.902 221.913 140.267 221.913C140.823 221.913 141.283 221.756 141.647 221.441C142.017 221.122 142.201 220.655 142.201 220.04V219.384ZM149.987 215.289C150.84 215.289 151.503 215.51 151.977 215.952C152.455 216.39 152.694 217.094 152.694 218.064V223H151.088V218.365C151.088 217.777 150.967 217.338 150.726 217.046C150.484 216.75 150.11 216.602 149.604 216.602C148.871 216.602 148.36 216.827 148.073 217.278C147.791 217.729 147.649 218.383 147.649 219.24V223H146.043V215.433H147.294L147.52 216.458H147.608C147.772 216.194 147.975 215.977 148.217 215.809C148.463 215.635 148.736 215.506 149.037 215.419C149.342 215.332 149.659 215.289 149.987 215.289ZM157.104 226.363C156.078 226.363 155.292 226.179 154.745 225.81C154.198 225.44 153.925 224.923 153.925 224.258C153.925 223.793 154.071 223.399 154.362 223.075C154.654 222.756 155.071 222.535 155.613 222.412C155.408 222.321 155.23 222.18 155.08 221.988C154.934 221.792 154.861 221.576 154.861 221.339C154.861 221.056 154.941 220.815 155.101 220.614C155.26 220.414 155.499 220.22 155.818 220.033C155.422 219.865 155.103 219.591 154.861 219.213C154.624 218.83 154.506 218.381 154.506 217.866C154.506 217.319 154.622 216.854 154.854 216.472C155.087 216.084 155.426 215.79 155.873 215.59C156.32 215.385 156.86 215.282 157.493 215.282C157.63 215.282 157.778 215.291 157.938 215.31C158.102 215.323 158.252 215.341 158.389 215.364C158.53 215.382 158.637 215.403 158.71 215.426H161.328V216.321L160.043 216.561C160.166 216.734 160.264 216.932 160.337 217.155C160.41 217.374 160.446 217.613 160.446 217.873C160.446 218.657 160.175 219.274 159.633 219.726C159.095 220.172 158.352 220.396 157.404 220.396C157.176 220.386 156.955 220.368 156.741 220.341C156.577 220.441 156.452 220.553 156.365 220.676C156.279 220.794 156.235 220.929 156.235 221.079C156.235 221.202 156.279 221.302 156.365 221.38C156.452 221.453 156.579 221.507 156.748 221.544C156.921 221.58 157.131 221.599 157.377 221.599H158.683C159.512 221.599 160.146 221.774 160.583 222.125C161.021 222.476 161.239 222.991 161.239 223.67C161.239 224.531 160.884 225.194 160.173 225.659C159.462 226.129 158.439 226.363 157.104 226.363ZM157.165 225.235C157.726 225.235 158.197 225.181 158.58 225.071C158.963 224.962 159.252 224.805 159.448 224.6C159.644 224.399 159.742 224.16 159.742 223.882C159.742 223.636 159.681 223.447 159.558 223.314C159.435 223.182 159.25 223.091 159.004 223.041C158.758 222.991 158.452 222.966 158.088 222.966H156.898C156.602 222.966 156.34 223.011 156.112 223.103C155.884 223.198 155.707 223.335 155.579 223.513C155.456 223.69 155.395 223.905 155.395 224.155C155.395 224.502 155.547 224.768 155.853 224.955C156.162 225.142 156.6 225.235 157.165 225.235ZM157.479 219.343C157.949 219.343 158.298 219.215 158.525 218.96C158.753 218.7 158.867 218.336 158.867 217.866C158.867 217.356 158.749 216.973 158.512 216.718C158.279 216.463 157.933 216.335 157.473 216.335C157.021 216.335 156.677 216.465 156.44 216.725C156.208 216.984 156.092 217.369 156.092 217.88C156.092 218.34 156.208 218.7 156.44 218.96C156.677 219.215 157.024 219.343 157.479 219.343ZM165.724 215.289C166.398 215.289 166.977 215.428 167.46 215.706C167.943 215.984 168.314 216.378 168.574 216.889C168.834 217.399 168.964 218.01 168.964 218.721V219.582H163.912C163.93 220.316 164.126 220.881 164.5 221.277C164.878 221.674 165.407 221.872 166.086 221.872C166.569 221.872 167.002 221.826 167.385 221.735C167.772 221.64 168.171 221.501 168.581 221.318V222.624C168.203 222.802 167.818 222.932 167.426 223.014C167.034 223.096 166.564 223.137 166.018 223.137C165.275 223.137 164.621 222.993 164.056 222.706C163.495 222.414 163.055 221.981 162.736 221.407C162.422 220.833 162.265 220.12 162.265 219.268C162.265 218.42 162.408 217.7 162.695 217.107C162.982 216.515 163.386 216.064 163.905 215.754C164.425 215.444 165.031 215.289 165.724 215.289ZM165.724 216.499C165.218 216.499 164.808 216.663 164.493 216.991C164.183 217.319 164.001 217.8 163.946 218.434H167.392C167.387 218.055 167.323 217.72 167.2 217.429C167.082 217.137 166.899 216.909 166.653 216.745C166.412 216.581 166.102 216.499 165.724 216.499Z" fill="black"/>
</g>
<g filter="url(#filter1_d_1_3821)">
<rect x="30" y="260" width="989" height="108" rx="10" fill="white" shape-rendering="crispEdges"/>
<path d="M63.68 307H50.984V304.24L59.408 292.6H51.296V289.84H63.368V292.6L54.92 304.24H63.68V307ZM75.1282 303.328L76.7842 305.272C76.1442 305.96 75.3842 306.488 74.5042 306.856C73.6402 307.208 72.7042 307.384 71.6962 307.384C70.3842 307.384 69.2322 307.112 68.2402 306.568C67.2482 306.024 66.4722 305.272 65.9122 304.312C65.3522 303.336 65.0722 302.224 65.0722 300.976C65.0722 299.744 65.3362 298.648 65.8642 297.688C66.3922 296.712 67.1122 295.944 68.0242 295.384C68.9362 294.824 69.9762 294.544 71.1442 294.544C72.2482 294.544 73.2242 294.816 74.0722 295.36C74.9362 295.904 75.6082 296.656 76.0882 297.616C76.5842 298.56 76.8322 299.64 76.8322 300.856V301.912H68.3602C68.5202 302.84 68.8882 303.568 69.4642 304.096C70.0562 304.624 70.8402 304.888 71.8162 304.888C73.1762 304.888 74.2802 304.368 75.1282 303.328ZM71.0962 297.016C70.3442 297.016 69.7282 297.272 69.2482 297.784C68.7842 298.296 68.4882 299 68.3602 299.896H73.6882C73.5922 298.968 73.3202 298.256 72.8722 297.76C72.4242 297.264 71.8322 297.016 71.0962 297.016ZM90.7541 307H87.5861V300.016C87.5861 299.072 87.3941 298.368 87.0101 297.904C86.6421 297.424 86.1301 297.184 85.4741 297.184C84.7701 297.184 84.1461 297.496 83.6021 298.12C83.0581 298.728 82.7861 299.728 82.7861 301.12V307H79.6181V294.928H82.7621V297.04C83.1301 296.08 83.6581 295.424 84.3461 295.072C85.0501 294.72 85.7381 294.544 86.4101 294.544C87.7541 294.544 88.8101 294.992 89.5781 295.888C90.3621 296.768 90.7541 298.04 90.7541 299.704V307ZM97.5367 290.992C97.5367 291.504 97.3527 291.944 96.9847 292.312C96.6167 292.68 96.1527 292.864 95.5927 292.864C95.0327 292.864 94.5687 292.68 94.2007 292.312C93.8327 291.944 93.6487 291.504 93.6487 290.992C93.6487 290.464 93.8327 290.024 94.2007 289.672C94.5687 289.304 95.0327 289.12 95.5927 289.12C96.1527 289.12 96.6167 289.304 96.9847 289.672C97.3527 290.024 97.5367 290.464 97.5367 290.992ZM97.1767 307H94.0087V294.928H97.1767V307ZM107.675 307H104.819C102.691 307 101.627 305.904 101.627 303.712V297.472H99.7066V294.928H101.627V291.736H104.795V294.928H107.555V297.472H104.795V303.16C104.795 303.992 105.179 304.408 105.947 304.408H107.675V307ZM121.41 307H118.242V300.016C118.242 299.072 118.05 298.368 117.666 297.904C117.298 297.424 116.786 297.184 116.13 297.184C115.426 297.184 114.802 297.496 114.258 298.12C113.714 298.728 113.442 299.728 113.442 301.12V307H110.274V289.72H113.442V296.968C113.826 296.04 114.354 295.408 115.026 295.072C115.714 294.72 116.394 294.544 117.066 294.544C118.41 294.544 119.466 294.992 120.234 295.888C121.018 296.768 121.41 298.04 121.41 299.704V307ZM130.464 307V289.84H137.424C138.48 289.84 139.408 290.032 140.208 290.416C141.008 290.784 141.624 291.304 142.056 291.976C142.504 292.648 142.728 293.432 142.728 294.328C142.728 295.112 142.528 295.816 142.128 296.44C141.744 297.064 141.208 297.56 140.52 297.928C141.416 298.296 142.12 298.832 142.632 299.536C143.144 300.24 143.4 301.072 143.4 302.032C143.4 303.024 143.152 303.896 142.656 304.648C142.176 305.4 141.496 305.984 140.616 306.4C139.752 306.8 138.736 307 137.568 307H130.464ZM137.232 292.552H133.704V296.872H137.232C137.936 296.872 138.48 296.68 138.864 296.296C139.264 295.896 139.464 295.352 139.464 294.664C139.464 294.008 139.264 293.496 138.864 293.128C138.48 292.744 137.936 292.552 137.232 292.552ZM133.704 304.288H137.592C138.376 304.288 138.992 304.08 139.44 303.664C139.904 303.232 140.136 302.632 140.136 301.864C140.136 301.128 139.904 300.56 139.44 300.16C138.992 299.744 138.376 299.536 137.592 299.536H133.704V304.288ZM150.04 307.384C148.712 307.384 147.64 307.024 146.824 306.304C146.024 305.568 145.624 304.616 145.624 303.448C145.624 302.216 146.112 301.248 147.088 300.544C148.064 299.84 149.424 299.488 151.168 299.488H153.712C153.68 298.688 153.416 298.072 152.92 297.64C152.424 297.192 151.744 296.968 150.88 296.968C149.728 296.968 148.656 297.432 147.664 298.36L146.008 296.464C147.448 295.184 149.168 294.544 151.168 294.544C152.832 294.544 154.16 295 155.152 295.912C156.144 296.824 156.64 298.048 156.64 299.584V307H153.856V305.536C153.44 306.112 152.904 306.568 152.248 306.904C151.592 307.224 150.856 307.384 150.04 307.384ZM150.784 305.056C151.456 305.056 152.048 304.88 152.56 304.528C153.088 304.16 153.472 303.68 153.712 303.088V301.504H151.384C150.568 301.504 149.928 301.664 149.464 301.984C149 302.304 148.768 302.752 148.768 303.328C148.768 303.84 148.952 304.256 149.32 304.576C149.688 304.896 150.176 305.056 150.784 305.056ZM171.051 307H167.883V300.016C167.883 299.072 167.691 298.368 167.307 297.904C166.939 297.424 166.427 297.184 165.771 297.184C165.067 297.184 164.443 297.496 163.899 298.12C163.355 298.728 163.083 299.728 163.083 301.12V307H159.915V294.928H163.059V297.04C163.427 296.08 163.955 295.424 164.643 295.072C165.347 294.72 166.035 294.544 166.707 294.544C168.051 294.544 169.107 294.992 169.875 295.888C170.659 296.768 171.051 298.04 171.051 299.704V307ZM177.474 307H174.306V289.72H177.474V300.256L182.178 294.928H185.922L180.618 300.736L186.594 307H182.61L177.474 301.456V307ZM197.524 307H194.284V289.84H200.884C202.036 289.84 203.044 290.064 203.908 290.512C204.788 290.944 205.468 291.552 205.948 292.336C206.444 293.12 206.692 294.032 206.692 295.072C206.692 296.112 206.444 297.032 205.948 297.832C205.468 298.616 204.788 299.232 203.908 299.68C203.044 300.112 202.036 300.328 200.884 300.328H197.524V307ZM200.884 292.576H197.524V297.592H200.884C201.668 297.592 202.284 297.368 202.732 296.92C203.196 296.472 203.428 295.856 203.428 295.072C203.428 294.304 203.196 293.696 202.732 293.248C202.284 292.8 201.668 292.576 200.884 292.576ZM212.653 307H209.485V289.72H212.653V307ZM224.903 303.064L226.871 305.032C226.263 305.768 225.519 306.344 224.639 306.76C223.759 307.176 222.807 307.384 221.783 307.384C220.551 307.384 219.455 307.112 218.495 306.568C217.551 306.008 216.807 305.248 216.263 304.288C215.719 303.312 215.447 302.2 215.447 300.952C215.447 299.688 215.711 298.576 216.239 297.616C216.783 296.656 217.527 295.904 218.471 295.36C219.431 294.816 220.535 294.544 221.783 294.544C223.927 294.544 225.623 295.328 226.871 296.896L224.879 298.864C224.095 297.744 223.127 297.184 221.975 297.184C221.031 297.184 220.255 297.528 219.647 298.216C219.039 298.904 218.735 299.816 218.735 300.952C218.735 302.088 219.039 303.008 219.647 303.712C220.271 304.4 221.055 304.744 221.999 304.744C223.183 304.744 224.151 304.184 224.903 303.064Z" fill="#374258"/>
<path d="M53.834 341H51.692V328.13H53.834V341ZM57.2115 341V328.13H61.5495C62.8455 328.13 63.9795 328.406 64.9515 328.958C65.9235 329.51 66.6795 330.272 67.2195 331.244C67.7595 332.204 68.0295 333.308 68.0295 334.556C68.0295 335.816 67.7595 336.932 67.2195 337.904C66.6795 338.864 65.9235 339.62 64.9515 340.172C63.9795 340.724 62.8455 341 61.5495 341H57.2115ZM59.3535 339.146H61.5495C62.4255 339.146 63.1755 338.96 63.7995 338.588C64.4355 338.204 64.9215 337.67 65.2575 336.986C65.6055 336.29 65.7795 335.48 65.7795 334.556C65.7795 333.632 65.6055 332.828 65.2575 332.144C64.9215 331.46 64.4355 330.932 63.7995 330.56C63.1755 330.176 62.4255 329.984 61.5495 329.984H59.3535V339.146ZM78.4147 341H69.9547V339.254L74.4187 334.952C74.8987 334.472 75.2767 334.052 75.5527 333.692C75.8287 333.332 76.0267 332.996 76.1467 332.684C76.2667 332.36 76.3267 332.024 76.3267 331.676C76.3267 331.064 76.1347 330.578 75.7507 330.218C75.3787 329.846 74.8687 329.66 74.2207 329.66C73.6087 329.66 73.0567 329.822 72.5647 330.146C72.0727 330.47 71.6107 330.98 71.1787 331.676L69.7747 330.308C70.9267 328.664 72.4087 327.842 74.2207 327.842C75.0607 327.842 75.7927 327.998 76.4167 328.31C77.0407 328.61 77.5267 329.042 77.8747 329.606C78.2227 330.158 78.3967 330.812 78.3967 331.568C78.3967 332.132 78.3007 332.66 78.1087 333.152C77.9287 333.644 77.6167 334.166 77.1727 334.718C76.7407 335.258 76.1347 335.9 75.3547 336.644L72.6907 339.254H78.4147V341ZM79.6682 339.002L81.0362 337.634C81.4922 338.294 81.9722 338.774 82.4762 339.074C82.9802 339.362 83.5382 339.506 84.1502 339.506C84.8582 339.506 85.4522 339.32 85.9322 338.948C86.4242 338.564 86.6702 338.006 86.6702 337.274C86.6702 336.65 86.4422 336.152 85.9862 335.78C85.5422 335.408 84.9242 335.222 84.1322 335.222H83.0162V333.44H84.1322C84.7922 333.44 85.3202 333.266 85.7162 332.918C86.1122 332.57 86.3102 332.12 86.3102 331.568C86.3102 331.004 86.1182 330.548 85.7342 330.2C85.3502 329.84 84.8522 329.66 84.2402 329.66C83.6522 329.66 83.1242 329.804 82.6562 330.092C82.2002 330.368 81.7562 330.824 81.3242 331.46L79.9382 330.02C80.5022 329.3 81.1562 328.76 81.9002 328.4C82.6562 328.028 83.4782 327.842 84.3662 327.842C85.1702 327.842 85.8842 327.998 86.5082 328.31C87.1322 328.622 87.6182 329.048 87.9662 329.588C88.3262 330.128 88.5062 330.746 88.5062 331.442C88.5062 332.066 88.3262 332.612 87.9662 333.08C87.6182 333.548 87.1382 333.908 86.5262 334.16C87.2582 334.412 87.8282 334.814 88.2362 335.366C88.6562 335.906 88.8662 336.566 88.8662 337.346C88.8662 338.114 88.6682 338.798 88.2722 339.398C87.8882 339.986 87.3482 340.448 86.6522 340.784C85.9682 341.12 85.1762 341.288 84.2762 341.288C82.2962 341.288 80.7602 340.526 79.6682 339.002ZM99.0677 341H96.9617V338.246H90.5537V336.5L96.9617 328.13H99.0677V336.5H100.76V338.246H99.0677V341ZM96.9617 330.848L92.6237 336.5H96.9617V330.848ZM102.133 339.002L103.501 337.634C103.957 338.294 104.437 338.774 104.941 339.074C105.445 339.362 106.003 339.506 106.615 339.506C107.323 339.506 107.917 339.32 108.397 338.948C108.889 338.564 109.135 338.006 109.135 337.274C109.135 336.65 108.907 336.152 108.451 335.78C108.007 335.408 107.389 335.222 106.597 335.222H105.481V333.44H106.597C107.257 333.44 107.785 333.266 108.181 332.918C108.577 332.57 108.775 332.12 108.775 331.568C108.775 331.004 108.583 330.548 108.199 330.2C107.815 329.84 107.317 329.66 106.705 329.66C106.117 329.66 105.589 329.804 105.121 330.092C104.665 330.368 104.221 330.824 103.789 331.46L102.403 330.02C102.967 329.3 103.621 328.76 104.365 328.4C105.121 328.028 105.943 327.842 106.831 327.842C107.635 327.842 108.349 327.998 108.973 328.31C109.597 328.622 110.083 329.048 110.431 329.588C110.791 330.128 110.971 330.746 110.971 331.442C110.971 332.066 110.791 332.612 110.431 333.08C110.083 333.548 109.603 333.908 108.991 334.16C109.723 334.412 110.293 334.814 110.701 335.366C111.121 335.906 111.331 336.566 111.331 337.346C111.331 338.114 111.133 338.798 110.737 339.398C110.353 339.986 109.813 340.448 109.117 340.784C108.433 341.12 107.641 341.288 106.741 341.288C104.761 341.288 103.225 340.526 102.133 339.002ZM112.857 338.876L114.261 337.508C114.981 338.84 115.995 339.506 117.303 339.506C118.083 339.506 118.707 339.248 119.175 338.732C119.655 338.216 119.895 337.544 119.895 336.716C119.895 335.96 119.673 335.33 119.229 334.826C118.785 334.322 118.197 334.07 117.465 334.07C117.009 334.07 116.559 334.19 116.115 334.43C115.683 334.658 115.347 335.012 115.107 335.492H113.289L114.117 328.13H121.407V329.876H115.773L115.359 333.386C115.671 333.05 116.049 332.792 116.493 332.612C116.949 332.42 117.441 332.324 117.969 332.324C118.749 332.324 119.445 332.516 120.057 332.9C120.669 333.284 121.149 333.806 121.497 334.466C121.845 335.126 122.019 335.87 122.019 336.698C122.019 337.586 121.815 338.378 121.407 339.074C121.011 339.758 120.459 340.298 119.751 340.694C119.043 341.09 118.221 341.288 117.285 341.288C116.361 341.288 115.509 341.084 114.729 340.676C113.961 340.256 113.337 339.656 112.857 338.876ZM128.388 341.288C127.476 341.288 126.672 341.084 125.976 340.676C125.28 340.268 124.734 339.698 124.338 338.966C123.954 338.222 123.762 337.37 123.762 336.41C123.762 334.994 124.146 333.62 124.914 332.288C125.694 330.956 126.954 329.57 128.694 328.13H131.502C130.23 329.186 129.216 330.116 128.46 330.92C127.704 331.724 127.128 332.492 126.732 333.224C127.284 332.696 128.01 332.432 128.91 332.432C129.702 332.432 130.41 332.612 131.034 332.972C131.67 333.332 132.168 333.836 132.528 334.484C132.9 335.132 133.086 335.882 133.086 336.734C133.086 337.61 132.882 338.39 132.474 339.074C132.078 339.758 131.526 340.298 130.818 340.694C130.122 341.09 129.312 341.288 128.388 341.288ZM128.406 339.524C129.15 339.524 129.756 339.272 130.224 338.768C130.704 338.252 130.944 337.598 130.944 336.806C130.944 336.014 130.704 335.372 130.224 334.88C129.756 334.376 129.15 334.124 128.406 334.124C127.674 334.124 127.068 334.37 126.588 334.862C126.108 335.342 125.868 335.99 125.868 336.806C125.868 337.322 125.976 337.79 126.192 338.21C126.42 338.618 126.726 338.942 127.11 339.182C127.494 339.41 127.926 339.524 128.406 339.524Z" fill="#75819A"/>
</g>
<defs>
<filter id="filter0_d_1_3821" x="64" y="191" width="131" height="60" filterUnits="userSpaceOnUse" color-interpolation-filters="sRGB">
<feFlood flood-opacity="0" result="BackgroundImageFix"/>
<feColorMatrix in="SourceAlpha" type="matrix" values="0 0 0 0 0 0 0 0 0 0 0 0 0 0 0 0 0 0 127 0" result="hardAlpha"/>
<feOffset dy="3"/>
<feGaussianBlur stdDeviation="5"/>
<feComposite in2="hardAlpha" operator="out"/>
<feColorMatrix type="matrix" values="0 0 0 0 0.252817 0 0 0 0 0.217222 0 0 0 0 0.383333 0 0 0 0.1 0"/>
<feBlend mode="normal" in2="BackgroundImageFix" result="effect1_dropShadow_1_3821"/>
<feBlend mode="normal" in="SourceGraphic" in2="effect1_dropShadow_1_3821" result="shape"/>
</filter>
<filter id="filter1_d_1_3821" x="26" y="257" width="997" height="116" filterUnits="userSpaceOnUse" color-interpolation-filters="sRGB">
<feFlood flood-opacity="0" result="BackgroundImageFix"/>
<feColorMatrix in="SourceAlpha" type="matrix" values="0 0 0 0 0 0 0 0 0 0 0 0 0 0 0 0 0 0 127 0" result="hardAlpha"/>
<feOffset dy="1"/>
<feGaussianBlur stdDeviation="2"/>
<feComposite in2="hardAlpha" operator="out"/>
<feColorMatrix type="matrix" values="0 0 0 0 0 0 0 0 0 0 0 0 0 0 0 0 0 0 0.05 0"/>
<feBlend mode="normal" in2="BackgroundImageFix" result="effect1_dropShadow_1_3821"/>
<feBlend mode="normal" in="SourceGraphic" in2="effect1_dropShadow_1_3821" result="shape"/>
</filter>
<clipPath id="clip0_1_3821">
<rect width="99.9998" height="100" fill="white" transform="translate(80 70)"/>
</clipPath>
</defs>
</svg>
