<svg width="200" height="231" viewBox="0 0 200 231" fill="none" xmlns="http://www.w3.org/2000/svg">
<rect width="200" height="200" rx="20" fill="#CBD1DA"/>
<g clip-path="url(#clip0_1_3822)">
<path d="M99.2871 98.1702C105.905 98.1702 111.635 95.7968 116.317 91.1139C121 86.4317 123.373 80.7028 123.373 74.0844C123.373 67.4682 121 61.7385 116.317 57.0549C111.634 52.3735 105.904 50 99.2871 50C92.6686 50 86.9397 52.3735 82.2576 57.0556C77.5754 61.7378 75.2012 67.4674 75.2012 74.0844C75.2012 80.7028 77.5754 86.4325 82.2584 91.1146C86.9413 95.796 92.6709 98.1702 99.2871 98.1702Z" fill="white"/>
<path d="M141.431 126.895C141.296 124.946 141.023 122.821 140.621 120.576C140.215 118.315 139.693 116.177 139.067 114.223C138.421 112.204 137.542 110.209 136.455 108.298C135.328 106.315 134.003 104.587 132.517 103.166C130.963 101.679 129.06 100.483 126.86 99.6114C124.667 98.7439 122.237 98.3045 119.638 98.3045C118.617 98.3045 117.63 98.7233 115.723 99.9646C114.55 100.73 113.177 101.615 111.645 102.594C110.335 103.428 108.561 104.21 106.369 104.918C104.23 105.61 102.059 105.961 99.916 105.961C97.7729 105.961 95.6024 105.61 93.4616 104.918C91.2719 104.211 89.4973 103.429 88.1889 102.594C86.6714 101.625 85.2981 100.74 84.1072 99.9639C82.2029 98.7226 81.2149 98.3037 80.1941 98.3037C77.594 98.3037 75.1648 98.7439 72.9728 99.6121C70.7741 100.483 68.8705 101.678 67.3149 103.167C65.8295 104.589 64.5042 106.315 63.3781 108.298C62.2925 110.209 61.4136 112.203 60.7666 114.224C60.1418 116.178 59.6191 118.315 59.2133 120.576C58.8112 122.818 58.5381 124.944 58.403 126.897C58.2703 128.81 58.2031 130.796 58.2031 132.802C58.2031 138.022 59.8625 142.248 63.1348 145.365C66.3666 148.44 70.6428 150 75.843 150H123.994C129.194 150 133.469 148.441 136.701 145.365C139.974 142.25 141.633 138.024 141.633 132.801C141.633 130.786 141.565 128.799 141.431 126.895Z" fill="white"/>
</g>
<g filter="url(#filter0_d_1_3822)">
<rect x="44" y="178" width="111" height="40" rx="20" fill="white"/>
<path d="M76.9598 200.062C76.794 200.062 76.635 200.128 76.5178 200.246C76.4006 200.363 76.3348 200.522 76.3348 200.687V202.822C76.3348 203.325 76.1349 203.807 75.7792 204.163C75.4235 204.519 74.941 204.719 74.4379 204.719H63.5629C63.0598 204.719 62.5773 204.519 62.2216 204.163C61.8659 203.807 61.666 203.325 61.666 202.822V200.687C61.666 200.522 61.6002 200.363 61.483 200.246C61.3657 200.128 61.2068 200.062 61.041 200.062C60.8753 200.062 60.7163 200.128 60.5991 200.246C60.4819 200.363 60.416 200.522 60.416 200.687V202.822C60.4168 203.656 60.7487 204.456 61.3386 205.046C61.9286 205.636 62.7285 205.968 63.5629 205.969H74.4379C75.2722 205.968 76.0722 205.636 76.6622 205.046C77.2521 204.456 77.5839 203.656 77.5848 202.822V200.687C77.5848 200.522 77.5189 200.363 77.4017 200.246C77.2845 200.128 77.1255 200.062 76.9598 200.062Z" fill="black"/>
<path d="M65.8758 194.656L68.3758 192.156V201.438C68.3758 201.603 68.4416 201.762 68.5588 201.88C68.676 201.997 68.835 202.063 69.0008 202.063C69.1665 202.063 69.3255 201.997 69.4427 201.88C69.5599 201.762 69.6258 201.603 69.6258 201.438V192.166L72.1258 194.666C72.1838 194.724 72.2528 194.77 72.3286 194.801C72.4045 194.833 72.4858 194.849 72.568 194.849C72.6501 194.849 72.7314 194.833 72.8073 194.801C72.8831 194.77 72.9521 194.724 73.0101 194.666C73.0682 194.608 73.1143 194.539 73.1457 194.463C73.1771 194.387 73.1933 194.306 73.1933 194.224C73.1933 194.141 73.1771 194.06 73.1457 193.984C73.1143 193.908 73.0682 193.839 73.0101 193.781L69.4445 190.216C69.3576 190.131 69.2497 190.072 69.132 190.044C69.0309 190.025 68.9267 190.031 68.8283 190.061C68.7299 190.091 68.6401 190.144 68.5664 190.216L65.0008 193.772C64.9015 193.891 64.8503 194.043 64.857 194.199C64.8638 194.354 64.928 194.501 65.0372 194.611C65.1463 194.721 65.2927 194.787 65.4477 194.796C65.6027 194.804 65.7553 194.754 65.8758 194.656Z" fill="black"/>
<path d="M94.5713 194.257C94.0928 194.257 93.6644 194.343 93.2861 194.517C92.9124 194.69 92.5957 194.94 92.3359 195.269C92.0762 195.592 91.8779 195.986 91.7412 196.451C91.6045 196.911 91.5361 197.431 91.5361 198.01C91.5361 198.785 91.6455 199.452 91.8643 200.013C92.083 200.569 92.4157 200.997 92.8623 201.298C93.3089 201.594 93.874 201.742 94.5576 201.742C94.9814 201.742 95.3939 201.701 95.7949 201.619C96.196 201.537 96.6107 201.425 97.0391 201.284V202.679C96.6335 202.838 96.2233 202.954 95.8086 203.027C95.3939 203.1 94.9154 203.137 94.373 203.137C93.3522 203.137 92.5046 202.925 91.8301 202.501C91.1602 202.077 90.6589 201.48 90.3262 200.71C89.998 199.94 89.834 199.037 89.834 198.003C89.834 197.246 89.9388 196.554 90.1484 195.925C90.3581 195.296 90.6634 194.754 91.0645 194.298C91.4655 193.838 91.96 193.484 92.5479 193.238C93.1403 192.988 93.8171 192.862 94.5781 192.862C95.0794 192.862 95.5716 192.919 96.0547 193.033C96.5423 193.143 96.9935 193.3 97.4082 193.505L96.834 194.858C96.4876 194.694 96.1253 194.553 95.7471 194.435C95.3688 194.316 94.9769 194.257 94.5713 194.257ZM100.628 192.363V195.036C100.628 195.314 100.619 195.585 100.601 195.85C100.587 196.114 100.571 196.319 100.553 196.465H100.642C100.801 196.201 100.997 195.984 101.229 195.815C101.462 195.642 101.722 195.512 102.009 195.426C102.3 195.339 102.61 195.296 102.938 195.296C103.517 195.296 104.009 195.394 104.415 195.59C104.821 195.781 105.131 196.08 105.345 196.485C105.563 196.891 105.673 197.417 105.673 198.064V203H104.066V198.365C104.066 197.777 103.946 197.338 103.704 197.046C103.463 196.75 103.089 196.602 102.583 196.602C102.095 196.602 101.708 196.704 101.421 196.909C101.138 197.11 100.936 197.408 100.812 197.805C100.689 198.197 100.628 198.675 100.628 199.24V203H99.0215V192.363H100.628ZM110.889 195.289C111.846 195.289 112.568 195.501 113.056 195.925C113.548 196.349 113.794 197.009 113.794 197.907V203H112.652L112.345 201.927H112.29C112.076 202.2 111.855 202.426 111.627 202.604C111.399 202.781 111.135 202.913 110.834 203C110.538 203.091 110.175 203.137 109.747 203.137C109.296 203.137 108.893 203.055 108.537 202.891C108.182 202.722 107.901 202.467 107.696 202.125C107.491 201.783 107.389 201.35 107.389 200.826C107.389 200.047 107.678 199.461 108.257 199.069C108.84 198.677 109.72 198.461 110.896 198.42L112.208 198.372V197.976C112.208 197.451 112.085 197.078 111.839 196.854C111.597 196.631 111.256 196.52 110.813 196.52C110.435 196.52 110.068 196.574 109.713 196.684C109.357 196.793 109.011 196.927 108.674 197.087L108.154 195.952C108.523 195.756 108.943 195.597 109.412 195.474C109.886 195.351 110.378 195.289 110.889 195.289ZM112.201 199.384L111.224 199.418C110.422 199.445 109.859 199.582 109.535 199.828C109.212 200.074 109.05 200.411 109.05 200.84C109.05 201.214 109.161 201.487 109.385 201.66C109.608 201.829 109.902 201.913 110.267 201.913C110.823 201.913 111.283 201.756 111.647 201.441C112.017 201.122 112.201 200.655 112.201 200.04V199.384ZM119.987 195.289C120.84 195.289 121.503 195.51 121.977 195.952C122.455 196.39 122.694 197.094 122.694 198.064V203H121.088V198.365C121.088 197.777 120.967 197.338 120.726 197.046C120.484 196.75 120.11 196.602 119.604 196.602C118.871 196.602 118.36 196.827 118.073 197.278C117.791 197.729 117.649 198.383 117.649 199.24V203H116.043V195.433H117.294L117.52 196.458H117.608C117.772 196.194 117.975 195.977 118.217 195.809C118.463 195.635 118.736 195.506 119.037 195.419C119.342 195.332 119.659 195.289 119.987 195.289ZM127.104 206.363C126.078 206.363 125.292 206.179 124.745 205.81C124.198 205.44 123.925 204.923 123.925 204.258C123.925 203.793 124.071 203.399 124.362 203.075C124.654 202.756 125.071 202.535 125.613 202.412C125.408 202.321 125.23 202.18 125.08 201.988C124.934 201.792 124.861 201.576 124.861 201.339C124.861 201.056 124.941 200.815 125.101 200.614C125.26 200.414 125.499 200.22 125.818 200.033C125.422 199.865 125.103 199.591 124.861 199.213C124.624 198.83 124.506 198.381 124.506 197.866C124.506 197.319 124.622 196.854 124.854 196.472C125.087 196.084 125.426 195.79 125.873 195.59C126.32 195.385 126.86 195.282 127.493 195.282C127.63 195.282 127.778 195.291 127.938 195.31C128.102 195.323 128.252 195.341 128.389 195.364C128.53 195.382 128.637 195.403 128.71 195.426H131.328V196.321L130.043 196.561C130.166 196.734 130.264 196.932 130.337 197.155C130.41 197.374 130.446 197.613 130.446 197.873C130.446 198.657 130.175 199.274 129.633 199.726C129.095 200.172 128.352 200.396 127.404 200.396C127.176 200.386 126.955 200.368 126.741 200.341C126.577 200.441 126.452 200.553 126.365 200.676C126.279 200.794 126.235 200.929 126.235 201.079C126.235 201.202 126.279 201.302 126.365 201.38C126.452 201.453 126.579 201.507 126.748 201.544C126.921 201.58 127.131 201.599 127.377 201.599H128.683C129.512 201.599 130.146 201.774 130.583 202.125C131.021 202.476 131.239 202.991 131.239 203.67C131.239 204.531 130.884 205.194 130.173 205.659C129.462 206.129 128.439 206.363 127.104 206.363ZM127.165 205.235C127.726 205.235 128.197 205.181 128.58 205.071C128.963 204.962 129.252 204.805 129.448 204.6C129.644 204.399 129.742 204.16 129.742 203.882C129.742 203.636 129.681 203.447 129.558 203.314C129.435 203.182 129.25 203.091 129.004 203.041C128.758 202.991 128.452 202.966 128.088 202.966H126.898C126.602 202.966 126.34 203.011 126.112 203.103C125.884 203.198 125.707 203.335 125.579 203.513C125.456 203.69 125.395 203.905 125.395 204.155C125.395 204.502 125.547 204.768 125.853 204.955C126.162 205.142 126.6 205.235 127.165 205.235ZM127.479 199.343C127.949 199.343 128.298 199.215 128.525 198.96C128.753 198.7 128.867 198.336 128.867 197.866C128.867 197.356 128.749 196.973 128.512 196.718C128.279 196.463 127.933 196.335 127.473 196.335C127.021 196.335 126.677 196.465 126.44 196.725C126.208 196.984 126.092 197.369 126.092 197.88C126.092 198.34 126.208 198.7 126.44 198.96C126.677 199.215 127.024 199.343 127.479 199.343ZM135.724 195.289C136.398 195.289 136.977 195.428 137.46 195.706C137.943 195.984 138.314 196.378 138.574 196.889C138.834 197.399 138.964 198.01 138.964 198.721V199.582H133.912C133.93 200.316 134.126 200.881 134.5 201.277C134.878 201.674 135.407 201.872 136.086 201.872C136.569 201.872 137.002 201.826 137.385 201.735C137.772 201.64 138.171 201.501 138.581 201.318V202.624C138.203 202.802 137.818 202.932 137.426 203.014C137.034 203.096 136.564 203.137 136.018 203.137C135.275 203.137 134.621 202.993 134.056 202.706C133.495 202.414 133.055 201.981 132.736 201.407C132.422 200.833 132.265 200.12 132.265 199.268C132.265 198.42 132.408 197.7 132.695 197.107C132.982 196.515 133.386 196.064 133.905 195.754C134.425 195.444 135.031 195.289 135.724 195.289ZM135.724 196.499C135.218 196.499 134.808 196.663 134.493 196.991C134.183 197.319 134.001 197.8 133.946 198.434H137.392C137.387 198.055 137.323 197.72 137.2 197.429C137.082 197.137 136.899 196.909 136.653 196.745C136.412 196.581 136.102 196.499 135.724 196.499Z" fill="black"/>
</g>
<defs>
<filter id="filter0_d_1_3822" x="34" y="171" width="131" height="60" filterUnits="userSpaceOnUse" color-interpolation-filters="sRGB">
<feFlood flood-opacity="0" result="BackgroundImageFix"/>
<feColorMatrix in="SourceAlpha" type="matrix" values="0 0 0 0 0 0 0 0 0 0 0 0 0 0 0 0 0 0 127 0" result="hardAlpha"/>
<feOffset dy="3"/>
<feGaussianBlur stdDeviation="5"/>
<feComposite in2="hardAlpha" operator="out"/>
<feColorMatrix type="matrix" values="0 0 0 0 0.252817 0 0 0 0 0.217222 0 0 0 0 0.383333 0 0 0 0.1 0"/>
<feBlend mode="normal" in2="BackgroundImageFix" result="effect1_dropShadow_1_3822"/>
<feBlend mode="normal" in="SourceGraphic" in2="effect1_dropShadow_1_3822" result="shape"/>
</filter>
<clipPath id="clip0_1_3822">
<rect width="99.9998" height="100" fill="white" transform="translate(50 50)"/>
</clipPath>
</defs>
</svg>
